<mxfile host="65bd71144e">
    <diagram id="-k2_nvyl8h7EHHhGBUQ3" name="智能指针">
        <mxGraphModel dx="1436" dy="1639" grid="1" gridSize="10" guides="1" tooltips="1" connect="1" arrows="1" fold="1" page="1" pageScale="1" pageWidth="827" pageHeight="1169" math="0" shadow="0">
            <root>
                <mxCell id="6dMJGXCS0I9ftsZN87XB-0"/>
                <mxCell id="6dMJGXCS0I9ftsZN87XB-1" parent="6dMJGXCS0I9ftsZN87XB-0"/>
                <mxCell id="0" value="UPlayer" style="swimlane;fontStyle=1;align=center;verticalAlign=top;childLayout=stackLayout;horizontal=1;startSize=26;horizontalStack=0;resizeParent=1;resizeParentMax=0;resizeLast=0;collapsible=1;marginBottom=0;" parent="6dMJGXCS0I9ftsZN87XB-1" vertex="1">
                    <mxGeometry x="170" y="150" width="160" height="86" as="geometry"/>
                </mxCell>
                <mxCell id="1" value="class APlayerController* PlayerController;" style="text;strokeColor=none;fillColor=none;align=left;verticalAlign=top;spacingLeft=4;spacingRight=4;overflow=hidden;rotatable=0;points=[[0,0.5],[1,0.5]];portConstraint=eastwest;" parent="0" vertex="1">
                    <mxGeometry y="26" width="160" height="26" as="geometry"/>
                </mxCell>
                <mxCell id="2" value="" style="line;strokeWidth=1;fillColor=none;align=left;verticalAlign=middle;spacingTop=-1;spacingLeft=3;spacingRight=3;rotatable=0;labelPosition=right;points=[];portConstraint=eastwest;" parent="0" vertex="1">
                    <mxGeometry y="52" width="160" height="8" as="geometry"/>
                </mxCell>
                <mxCell id="3" value="+ method(type): type" style="text;strokeColor=none;fillColor=none;align=left;verticalAlign=top;spacingLeft=4;spacingRight=4;overflow=hidden;rotatable=0;points=[[0,0.5],[1,0.5]];portConstraint=eastwest;" parent="0" vertex="1">
                    <mxGeometry y="60" width="160" height="26" as="geometry"/>
                </mxCell>
                <mxCell id="6" value="ULocalPlayer" style="swimlane;fontStyle=1;align=center;verticalAlign=top;childLayout=stackLayout;horizontal=1;startSize=26;horizontalStack=0;resizeParent=1;resizeParentMax=0;resizeLast=0;collapsible=1;marginBottom=0;" parent="6dMJGXCS0I9ftsZN87XB-1" vertex="1">
                    <mxGeometry x="60" y="300" width="160" height="86" as="geometry"/>
                </mxCell>
                <mxCell id="7" value="class UGameViewportClient* ViewportClient;" style="text;strokeColor=none;fillColor=none;align=left;verticalAlign=top;spacingLeft=4;spacingRight=4;overflow=hidden;rotatable=0;points=[[0,0.5],[1,0.5]];portConstraint=eastwest;" parent="6" vertex="1">
                    <mxGeometry y="26" width="160" height="26" as="geometry"/>
                </mxCell>
                <mxCell id="8" value="" style="line;strokeWidth=1;fillColor=none;align=left;verticalAlign=middle;spacingTop=-1;spacingLeft=3;spacingRight=3;rotatable=0;labelPosition=right;points=[];portConstraint=eastwest;" parent="6" vertex="1">
                    <mxGeometry y="52" width="160" height="8" as="geometry"/>
                </mxCell>
                <mxCell id="9" value="+ method(type): type" style="text;strokeColor=none;fillColor=none;align=left;verticalAlign=top;spacingLeft=4;spacingRight=4;overflow=hidden;rotatable=0;points=[[0,0.5],[1,0.5]];portConstraint=eastwest;" parent="6" vertex="1">
                    <mxGeometry y="60" width="160" height="26" as="geometry"/>
                </mxCell>
                <mxCell id="10" value="UNetConnection" style="swimlane;fontStyle=1;align=center;verticalAlign=top;childLayout=stackLayout;horizontal=1;startSize=26;horizontalStack=0;resizeParent=1;resizeParentMax=0;resizeLast=0;collapsible=1;marginBottom=0;" parent="6dMJGXCS0I9ftsZN87XB-1" vertex="1">
                    <mxGeometry x="360" y="310" width="160" height="86" as="geometry"/>
                </mxCell>
                <mxCell id="11" value="+ field: type" style="text;strokeColor=none;fillColor=none;align=left;verticalAlign=top;spacingLeft=4;spacingRight=4;overflow=hidden;rotatable=0;points=[[0,0.5],[1,0.5]];portConstraint=eastwest;" parent="10" vertex="1">
                    <mxGeometry y="26" width="160" height="26" as="geometry"/>
                </mxCell>
                <mxCell id="12" value="" style="line;strokeWidth=1;fillColor=none;align=left;verticalAlign=middle;spacingTop=-1;spacingLeft=3;spacingRight=3;rotatable=0;labelPosition=right;points=[];portConstraint=eastwest;" parent="10" vertex="1">
                    <mxGeometry y="52" width="160" height="8" as="geometry"/>
                </mxCell>
                <mxCell id="13" value="+ method(type): type" style="text;strokeColor=none;fillColor=none;align=left;verticalAlign=top;spacingLeft=4;spacingRight=4;overflow=hidden;rotatable=0;points=[[0,0.5],[1,0.5]];portConstraint=eastwest;" parent="10" vertex="1">
                    <mxGeometry y="60" width="160" height="26" as="geometry"/>
                </mxCell>
                <mxCell id="14" value="UNetDriver" style="swimlane;fontStyle=1;align=center;verticalAlign=top;childLayout=stackLayout;horizontal=1;startSize=26;horizontalStack=0;resizeParent=1;resizeParentMax=0;resizeLast=0;collapsible=1;marginBottom=0;" parent="6dMJGXCS0I9ftsZN87XB-1" vertex="1">
                    <mxGeometry x="770" y="190" width="160" height="86" as="geometry"/>
                </mxCell>
                <mxCell id="15" value="+ field: type" style="text;strokeColor=none;fillColor=none;align=left;verticalAlign=top;spacingLeft=4;spacingRight=4;overflow=hidden;rotatable=0;points=[[0,0.5],[1,0.5]];portConstraint=eastwest;" parent="14" vertex="1">
                    <mxGeometry y="26" width="160" height="26" as="geometry"/>
                </mxCell>
                <mxCell id="16" value="" style="line;strokeWidth=1;fillColor=none;align=left;verticalAlign=middle;spacingTop=-1;spacingLeft=3;spacingRight=3;rotatable=0;labelPosition=right;points=[];portConstraint=eastwest;" parent="14" vertex="1">
                    <mxGeometry y="52" width="160" height="8" as="geometry"/>
                </mxCell>
                <mxCell id="17" value="+ method(type): type" style="text;strokeColor=none;fillColor=none;align=left;verticalAlign=top;spacingLeft=4;spacingRight=4;overflow=hidden;rotatable=0;points=[[0,0.5],[1,0.5]];portConstraint=eastwest;" parent="14" vertex="1">
                    <mxGeometry y="60" width="160" height="26" as="geometry"/>
                </mxCell>
                <mxCell id="18" value="StartPlayInEditorGameInstance" style="shape=step;perimeter=stepPerimeter;whiteSpace=wrap;html=1;fixedSize=1;" parent="6dMJGXCS0I9ftsZN87XB-1" vertex="1">
                    <mxGeometry x="-20" y="1260" width="120" height="80" as="geometry"/>
                </mxCell>
                <mxCell id="19" value="UGameInstance" style="text;html=1;align=center;verticalAlign=middle;resizable=0;points=[];autosize=1;strokeColor=none;fillColor=none;" parent="6dMJGXCS0I9ftsZN87XB-1" vertex="1">
                    <mxGeometry x="-40" y="1230" width="100" height="20" as="geometry"/>
                </mxCell>
                <mxCell id="20" value="Listen" style="shape=step;perimeter=stepPerimeter;whiteSpace=wrap;html=1;fixedSize=1;" parent="6dMJGXCS0I9ftsZN87XB-1" vertex="1">
                    <mxGeometry x="170" y="1270" width="120" height="80" as="geometry"/>
                </mxCell>
                <mxCell id="21" value="UWorld" style="text;html=1;align=center;verticalAlign=middle;resizable=0;points=[];autosize=1;strokeColor=none;fillColor=none;" parent="6dMJGXCS0I9ftsZN87XB-1" vertex="1">
                    <mxGeometry x="180" y="1240" width="60" height="20" as="geometry"/>
                </mxCell>
                <mxCell id="22" value="CreateNamedNetDriver" style="shape=step;perimeter=stepPerimeter;whiteSpace=wrap;html=1;fixedSize=1;" parent="6dMJGXCS0I9ftsZN87XB-1" vertex="1">
                    <mxGeometry x="330" y="1260" width="120" height="80" as="geometry"/>
                </mxCell>
                <mxCell id="DLMIEE5N5NuEH8CdqNqv-22" value="UEngine" style="swimlane;fontStyle=1;align=center;verticalAlign=top;childLayout=stackLayout;horizontal=1;startSize=26;horizontalStack=0;resizeParent=1;resizeParentMax=0;resizeLast=0;collapsible=1;marginBottom=0;" parent="6dMJGXCS0I9ftsZN87XB-1" vertex="1">
                    <mxGeometry x="120" y="-440" width="490" height="86" as="geometry"/>
                </mxCell>
                <mxCell id="DLMIEE5N5NuEH8CdqNqv-23" value="TIndirectArray&lt;FWorldContext&gt;&#9;WorldList;" style="text;strokeColor=none;fillColor=none;align=left;verticalAlign=top;spacingLeft=4;spacingRight=4;overflow=hidden;rotatable=0;points=[[0,0.5],[1,0.5]];portConstraint=eastwest;" parent="DLMIEE5N5NuEH8CdqNqv-22" vertex="1">
                    <mxGeometry y="26" width="490" height="26" as="geometry"/>
                </mxCell>
                <mxCell id="DLMIEE5N5NuEH8CdqNqv-24" value="" style="line;strokeWidth=1;fillColor=none;align=left;verticalAlign=middle;spacingTop=-1;spacingLeft=3;spacingRight=3;rotatable=0;labelPosition=right;points=[];portConstraint=eastwest;" parent="DLMIEE5N5NuEH8CdqNqv-22" vertex="1">
                    <mxGeometry y="52" width="490" height="8" as="geometry"/>
                </mxCell>
                <mxCell id="DLMIEE5N5NuEH8CdqNqv-25" value="FWorldContext&amp; CreateNewWorldContext(EWorldType::Type WorldType);" style="text;strokeColor=none;fillColor=none;align=left;verticalAlign=top;spacingLeft=4;spacingRight=4;overflow=hidden;rotatable=0;points=[[0,0.5],[1,0.5]];portConstraint=eastwest;" parent="DLMIEE5N5NuEH8CdqNqv-22" vertex="1">
                    <mxGeometry y="60" width="490" height="26" as="geometry"/>
                </mxCell>
                <mxCell id="DLMIEE5N5NuEH8CdqNqv-26" value="UGameEngine" style="swimlane;fontStyle=1;align=center;verticalAlign=top;childLayout=stackLayout;horizontal=1;startSize=26;horizontalStack=0;resizeParent=1;resizeParentMax=0;resizeLast=0;collapsible=1;marginBottom=0;" parent="6dMJGXCS0I9ftsZN87XB-1" vertex="1">
                    <mxGeometry x="35" y="-290" width="160" height="86" as="geometry"/>
                </mxCell>
                <mxCell id="DLMIEE5N5NuEH8CdqNqv-27" value="+ field: type" style="text;strokeColor=none;fillColor=none;align=left;verticalAlign=top;spacingLeft=4;spacingRight=4;overflow=hidden;rotatable=0;points=[[0,0.5],[1,0.5]];portConstraint=eastwest;" parent="DLMIEE5N5NuEH8CdqNqv-26" vertex="1">
                    <mxGeometry y="26" width="160" height="26" as="geometry"/>
                </mxCell>
                <mxCell id="DLMIEE5N5NuEH8CdqNqv-28" value="" style="line;strokeWidth=1;fillColor=none;align=left;verticalAlign=middle;spacingTop=-1;spacingLeft=3;spacingRight=3;rotatable=0;labelPosition=right;points=[];portConstraint=eastwest;" parent="DLMIEE5N5NuEH8CdqNqv-26" vertex="1">
                    <mxGeometry y="52" width="160" height="8" as="geometry"/>
                </mxCell>
                <mxCell id="DLMIEE5N5NuEH8CdqNqv-29" value="+ method(type): type" style="text;strokeColor=none;fillColor=none;align=left;verticalAlign=top;spacingLeft=4;spacingRight=4;overflow=hidden;rotatable=0;points=[[0,0.5],[1,0.5]];portConstraint=eastwest;" parent="DLMIEE5N5NuEH8CdqNqv-26" vertex="1">
                    <mxGeometry y="60" width="160" height="26" as="geometry"/>
                </mxCell>
                <mxCell id="DLMIEE5N5NuEH8CdqNqv-30" value="TIndirectArray" style="text;html=1;align=center;verticalAlign=middle;resizable=0;points=[];autosize=1;strokeColor=none;fillColor=none;" parent="6dMJGXCS0I9ftsZN87XB-1" vertex="1">
                    <mxGeometry x="-95" y="-584" width="90" height="20" as="geometry"/>
                </mxCell>
                <mxCell id="DLMIEE5N5NuEH8CdqNqv-31" value="&lt;div&gt;间接的数组。&lt;/div&gt;&lt;div&gt;&lt;br&gt;&lt;/div&gt;&lt;div&gt;与TArray相同，但存储了指向元素的指针&lt;/div&gt;&lt;div&gt;&lt;br&gt;&lt;/div&gt;&lt;div&gt;在不重新定位实际元素的情况下调整数组索引的大小。&lt;/div&gt;" style="text;html=1;align=center;verticalAlign=middle;resizable=0;points=[];autosize=1;strokeColor=none;fillColor=none;" parent="6dMJGXCS0I9ftsZN87XB-1" vertex="1">
                    <mxGeometry x="-200" y="-690" width="300" height="80" as="geometry"/>
                </mxCell>
                <mxCell id="DLMIEE5N5NuEH8CdqNqv-32" value="只存放指针" style="text;html=1;align=center;verticalAlign=middle;resizable=0;points=[];autosize=1;strokeColor=none;fillColor=none;" parent="6dMJGXCS0I9ftsZN87XB-1" vertex="1">
                    <mxGeometry x="-90" y="-610" width="80" height="20" as="geometry"/>
                </mxCell>
                <mxCell id="DLMIEE5N5NuEH8CdqNqv-33" value="通过类型创建 worldContext" style="text;html=1;align=center;verticalAlign=middle;resizable=0;points=[];autosize=1;strokeColor=none;fillColor=none;" parent="6dMJGXCS0I9ftsZN87XB-1" vertex="1">
                    <mxGeometry x="550" y="-370" width="160" height="20" as="geometry"/>
                </mxCell>
                <mxCell id="DLMIEE5N5NuEH8CdqNqv-34" value="UGameInstance" style="swimlane;fontStyle=1;align=center;verticalAlign=top;childLayout=stackLayout;horizontal=1;startSize=26;horizontalStack=0;resizeParent=1;resizeParentMax=0;resizeLast=0;collapsible=1;marginBottom=0;" parent="6dMJGXCS0I9ftsZN87XB-1" vertex="1">
                    <mxGeometry x="-125" y="-150" width="565" height="190" as="geometry"/>
                </mxCell>
                <mxCell id="DLMIEE5N5NuEH8CdqNqv-35" value="+ field: type" style="text;strokeColor=none;fillColor=none;align=left;verticalAlign=top;spacingLeft=4;spacingRight=4;overflow=hidden;rotatable=0;points=[[0,0.5],[1,0.5]];portConstraint=eastwest;" parent="DLMIEE5N5NuEH8CdqNqv-34" vertex="1">
                    <mxGeometry y="26" width="565" height="26" as="geometry"/>
                </mxCell>
                <mxCell id="40" value="TArray&lt;ULocalPlayer*&gt; LocalPlayers;" style="text;strokeColor=none;fillColor=none;align=left;verticalAlign=top;spacingLeft=4;spacingRight=4;overflow=hidden;rotatable=0;points=[[0,0.5],[1,0.5]];portConstraint=eastwest;" vertex="1" parent="DLMIEE5N5NuEH8CdqNqv-34">
                    <mxGeometry y="52" width="565" height="26" as="geometry"/>
                </mxCell>
                <mxCell id="DLMIEE5N5NuEH8CdqNqv-36" value="" style="line;strokeWidth=1;fillColor=none;align=left;verticalAlign=middle;spacingTop=-1;spacingLeft=3;spacingRight=3;rotatable=0;labelPosition=right;points=[];portConstraint=eastwest;" parent="DLMIEE5N5NuEH8CdqNqv-34" vertex="1">
                    <mxGeometry y="78" width="565" height="8" as="geometry"/>
                </mxCell>
                <mxCell id="DLMIEE5N5NuEH8CdqNqv-38" value="void InitializeStandalone(const FName InWorldName = NAME_None, UPackage* InWorldPackage = nullptr);" style="text;strokeColor=none;fillColor=none;align=left;verticalAlign=top;spacingLeft=4;spacingRight=4;overflow=hidden;rotatable=0;points=[[0,0.5],[1,0.5]];portConstraint=eastwest;" parent="DLMIEE5N5NuEH8CdqNqv-34" vertex="1">
                    <mxGeometry y="86" width="565" height="26" as="geometry"/>
                </mxCell>
                <mxCell id="DLMIEE5N5NuEH8CdqNqv-39" value="void InitializeForMinimalNetRPC(const FName InPackageName);" style="text;strokeColor=none;fillColor=none;align=left;verticalAlign=top;spacingLeft=4;spacingRight=4;overflow=hidden;rotatable=0;points=[[0,0.5],[1,0.5]];portConstraint=eastwest;" parent="DLMIEE5N5NuEH8CdqNqv-34" vertex="1">
                    <mxGeometry y="112" width="565" height="26" as="geometry"/>
                </mxCell>
                <mxCell id="DLMIEE5N5NuEH8CdqNqv-37" value="virtual FGameInstancePIEResult InitializeForPlayInEditor(int32 PIEInstanceIndex, const FGameInstancePIEParameters&amp; Params);" style="text;strokeColor=none;fillColor=none;align=left;verticalAlign=top;spacingLeft=4;spacingRight=4;overflow=hidden;rotatable=0;points=[[0,0.5],[1,0.5]];portConstraint=eastwest;" parent="DLMIEE5N5NuEH8CdqNqv-34" vertex="1">
                    <mxGeometry y="138" width="565" height="26" as="geometry"/>
                </mxCell>
                <mxCell id="DLMIEE5N5NuEH8CdqNqv-44" value="virtual void StartGameInstance();" style="text;strokeColor=none;fillColor=none;align=left;verticalAlign=top;spacingLeft=4;spacingRight=4;overflow=hidden;rotatable=0;points=[[0,0.5],[1,0.5]];portConstraint=eastwest;" parent="DLMIEE5N5NuEH8CdqNqv-34" vertex="1">
                    <mxGeometry y="164" width="565" height="26" as="geometry"/>
                </mxCell>
                <mxCell id="DLMIEE5N5NuEH8CdqNqv-40" value="调用来初始化游戏的PIE实例的游戏实例" style="text;html=1;align=center;verticalAlign=middle;resizable=0;points=[];autosize=1;strokeColor=none;fillColor=none;" parent="6dMJGXCS0I9ftsZN87XB-1" vertex="1">
                    <mxGeometry x="480" y="-32" width="230" height="20" as="geometry"/>
                </mxCell>
                <mxCell id="DLMIEE5N5NuEH8CdqNqv-41" value="调用来初始化游戏实例，使用一个适合基本网络RPC的最小世界" style="text;html=1;align=center;verticalAlign=middle;resizable=0;points=[];autosize=1;strokeColor=none;fillColor=none;" parent="6dMJGXCS0I9ftsZN87XB-1" vertex="1">
                    <mxGeometry x="450" y="-60" width="350" height="20" as="geometry"/>
                </mxCell>
                <mxCell id="DLMIEE5N5NuEH8CdqNqv-42" value="调用该函数来初始化游戏独立实例的游戏实例" style="text;html=1;align=center;verticalAlign=middle;resizable=0;points=[];autosize=1;strokeColor=none;fillColor=none;" parent="6dMJGXCS0I9ftsZN87XB-1" vertex="1">
                    <mxGeometry x="465" y="-91" width="260" height="20" as="geometry"/>
                </mxCell>
                <mxCell id="DLMIEE5N5NuEH8CdqNqv-43" value="创建&amp;nbsp; worldcontext 和world&amp;nbsp;" style="text;html=1;align=center;verticalAlign=middle;resizable=0;points=[];autosize=1;strokeColor=none;fillColor=none;" parent="6dMJGXCS0I9ftsZN87XB-1" vertex="1">
                    <mxGeometry x="910" y="-60" width="160" height="20" as="geometry"/>
                </mxCell>
                <mxCell id="DLMIEE5N5NuEH8CdqNqv-45" value="启动GameInstance状态机运行" style="text;html=1;align=center;verticalAlign=middle;resizable=0;points=[];autosize=1;strokeColor=none;fillColor=none;" parent="6dMJGXCS0I9ftsZN87XB-1" vertex="1">
                    <mxGeometry x="460" width="180" height="20" as="geometry"/>
                </mxCell>
                <mxCell id="24" value="Init" style="shape=step;perimeter=stepPerimeter;whiteSpace=wrap;html=1;fixedSize=1;" vertex="1" parent="6dMJGXCS0I9ftsZN87XB-1">
                    <mxGeometry x="-490" y="700" width="120" height="80" as="geometry"/>
                </mxCell>
                <mxCell id="25" value="FEngineLoop" style="text;html=1;align=center;verticalAlign=middle;resizable=0;points=[];autosize=1;strokeColor=none;fillColor=none;" vertex="1" parent="6dMJGXCS0I9ftsZN87XB-1">
                    <mxGeometry x="-480" y="660" width="90" height="20" as="geometry"/>
                </mxCell>
                <mxCell id="26" value="Init" style="shape=step;perimeter=stepPerimeter;whiteSpace=wrap;html=1;fixedSize=1;" vertex="1" parent="6dMJGXCS0I9ftsZN87XB-1">
                    <mxGeometry x="-495" y="810" width="120" height="80" as="geometry"/>
                </mxCell>
                <mxCell id="27" value="GEngine-&amp;gt;Init(this);" style="shape=step;perimeter=stepPerimeter;whiteSpace=wrap;html=1;fixedSize=1;" vertex="1" parent="6dMJGXCS0I9ftsZN87XB-1">
                    <mxGeometry x="-300" y="820" width="120" height="80" as="geometry"/>
                </mxCell>
                <mxCell id="28" value="GEngine-&amp;gt;Start();" style="shape=step;perimeter=stepPerimeter;whiteSpace=wrap;html=1;fixedSize=1;" vertex="1" parent="6dMJGXCS0I9ftsZN87XB-1">
                    <mxGeometry x="-290" y="990" width="120" height="80" as="geometry"/>
                </mxCell>
                <mxCell id="30" value="通过设置来创建&lt;span style=&quot;font-weight: 700&quot;&gt;UEngine&lt;/span&gt;" style="text;html=1;align=center;verticalAlign=middle;resizable=0;points=[];autosize=1;strokeColor=none;fillColor=none;" vertex="1" parent="6dMJGXCS0I9ftsZN87XB-1">
                    <mxGeometry x="-413" y="800" width="150" height="20" as="geometry"/>
                </mxCell>
                <mxCell id="31" value="初始化的时候创建 UGameInstance" style="text;html=1;align=center;verticalAlign=middle;resizable=0;points=[];autosize=1;strokeColor=none;fillColor=none;" vertex="1" parent="6dMJGXCS0I9ftsZN87XB-1">
                    <mxGeometry x="-240" y="800" width="200" height="20" as="geometry"/>
                </mxCell>
                <mxCell id="32" value="GameInstance-&amp;gt;InitializeStandalone();" style="shape=step;perimeter=stepPerimeter;whiteSpace=wrap;html=1;fixedSize=1;" vertex="1" parent="6dMJGXCS0I9ftsZN87XB-1">
                    <mxGeometry x="-110" y="830" width="120" height="80" as="geometry"/>
                </mxCell>
                <mxCell id="33" value="这里会创建&lt;span style=&quot;text-align: left&quot;&gt;FWorldContext&lt;/span&gt;" style="text;html=1;align=center;verticalAlign=middle;resizable=0;points=[];autosize=1;strokeColor=none;fillColor=none;" vertex="1" parent="6dMJGXCS0I9ftsZN87XB-1">
                    <mxGeometry x="-60" y="920" width="160" height="20" as="geometry"/>
                </mxCell>
                <mxCell id="34" value="Init" style="shape=step;perimeter=stepPerimeter;whiteSpace=wrap;html=1;fixedSize=1;" vertex="1" parent="6dMJGXCS0I9ftsZN87XB-1">
                    <mxGeometry x="60" y="830" width="120" height="80" as="geometry"/>
                </mxCell>
                <mxCell id="35" value="UGameInstance" style="text;html=1;align=center;verticalAlign=middle;resizable=0;points=[];autosize=1;strokeColor=none;fillColor=none;" vertex="1" parent="6dMJGXCS0I9ftsZN87XB-1">
                    <mxGeometry x="55" y="800" width="100" height="20" as="geometry"/>
                </mxCell>
                <mxCell id="36" value="编辑器下点击运行" style="text;html=1;align=center;verticalAlign=middle;resizable=0;points=[];autosize=1;strokeColor=none;fillColor=none;" vertex="1" parent="6dMJGXCS0I9ftsZN87XB-1">
                    <mxGeometry x="-650" y="1250" width="110" height="20" as="geometry"/>
                </mxCell>
                <mxCell id="37" value="CreateInnerProcessPIEGameInstance" style="shape=step;perimeter=stepPerimeter;whiteSpace=wrap;html=1;fixedSize=1;" vertex="1" parent="6dMJGXCS0I9ftsZN87XB-1">
                    <mxGeometry x="-220" y="1230" width="120" height="80" as="geometry"/>
                </mxCell>
                <mxCell id="38" value="CreateNewPlayInEditorInstance" style="shape=step;perimeter=stepPerimeter;whiteSpace=wrap;html=1;fixedSize=1;" vertex="1" parent="6dMJGXCS0I9ftsZN87XB-1">
                    <mxGeometry x="-450" y="1250" width="120" height="80" as="geometry"/>
                </mxCell>
                <mxCell id="42" value="UWorld" style="swimlane;fontStyle=1;align=center;verticalAlign=top;childLayout=stackLayout;horizontal=1;startSize=26;horizontalStack=0;resizeParent=1;resizeParentMax=0;resizeLast=0;collapsible=1;marginBottom=0;" vertex="1" parent="6dMJGXCS0I9ftsZN87XB-1">
                    <mxGeometry x="1070" y="52" width="160" height="86" as="geometry"/>
                </mxCell>
                <mxCell id="43" value="class UNetDriver*&#9;&#9;&#9;&#9;&#9;&#9;&#9;NetDriver;" style="text;strokeColor=none;fillColor=none;align=left;verticalAlign=top;spacingLeft=4;spacingRight=4;overflow=hidden;rotatable=0;points=[[0,0.5],[1,0.5]];portConstraint=eastwest;" vertex="1" parent="42">
                    <mxGeometry y="26" width="160" height="26" as="geometry"/>
                </mxCell>
                <mxCell id="44" value="" style="line;strokeWidth=1;fillColor=none;align=left;verticalAlign=middle;spacingTop=-1;spacingLeft=3;spacingRight=3;rotatable=0;labelPosition=right;points=[];portConstraint=eastwest;" vertex="1" parent="42">
                    <mxGeometry y="52" width="160" height="8" as="geometry"/>
                </mxCell>
                <mxCell id="45" value="+ method(type): type" style="text;strokeColor=none;fillColor=none;align=left;verticalAlign=top;spacingLeft=4;spacingRight=4;overflow=hidden;rotatable=0;points=[[0,0.5],[1,0.5]];portConstraint=eastwest;" vertex="1" parent="42">
                    <mxGeometry y="60" width="160" height="26" as="geometry"/>
                </mxCell>
                <mxCell id="47" value="&lt;span style=&quot;font-weight: 600 ; color: rgb(18 , 18 , 18) ; font-family: , &amp;#34;blinkmacsystemfont&amp;#34; , &amp;#34;helvetica neue&amp;#34; , &amp;#34;pingfang sc&amp;#34; , &amp;#34;microsoft yahei&amp;#34; , &amp;#34;source han sans sc&amp;#34; , &amp;#34;noto sans cjk sc&amp;#34; , &amp;#34;wenquanyi micro hei&amp;#34; , sans-serif ; font-size: medium ; background-color: rgb(255 , 255 , 255)&quot;&gt;UWorld::Listen&lt;/span&gt;" style="shape=step;perimeter=stepPerimeter;whiteSpace=wrap;html=1;fixedSize=1;" vertex="1" parent="6dMJGXCS0I9ftsZN87XB-1">
                    <mxGeometry x="-560" y="1630" width="120" height="80" as="geometry"/>
                </mxCell>
                <mxCell id="48" value="创建&lt;span style=&quot;font-weight: 600 ; color: rgb(18 , 18 , 18) ; font-family: , &amp;#34;blinkmacsystemfont&amp;#34; , &amp;#34;helvetica neue&amp;#34; , &amp;#34;pingfang sc&amp;#34; , &amp;#34;microsoft yahei&amp;#34; , &amp;#34;source han sans sc&amp;#34; , &amp;#34;noto sans cjk sc&amp;#34; , &amp;#34;wenquanyi micro hei&amp;#34; , sans-serif ; font-size: medium ; background-color: rgb(255 , 255 , 255)&quot;&gt;UNetDrive&lt;/span&gt;" style="text;html=1;align=center;verticalAlign=middle;resizable=0;points=[];autosize=1;strokeColor=none;fillColor=none;" vertex="1" parent="6dMJGXCS0I9ftsZN87XB-1">
                    <mxGeometry x="-570" y="1590" width="120" height="20" as="geometry"/>
                </mxCell>
                <mxCell id="50" value="&lt;span style=&quot;color: rgb(18 , 18 , 18) ; font-family: , &amp;#34;blinkmacsystemfont&amp;#34; , &amp;#34;helvetica neue&amp;#34; , &amp;#34;pingfang sc&amp;#34; , &amp;#34;microsoft yahei&amp;#34; , &amp;#34;source han sans sc&amp;#34; , &amp;#34;noto sans cjk sc&amp;#34; , &amp;#34;wenquanyi micro hei&amp;#34; , sans-serif ; font-size: medium ; background-color: rgb(255 , 255 , 255)&quot;&gt;那&lt;/span&gt;&lt;span style=&quot;font-weight: 600 ; color: rgb(18 , 18 , 18) ; font-family: , &amp;#34;blinkmacsystemfont&amp;#34; , &amp;#34;helvetica neue&amp;#34; , &amp;#34;pingfang sc&amp;#34; , &amp;#34;microsoft yahei&amp;#34; , &amp;#34;source han sans sc&amp;#34; , &amp;#34;noto sans cjk sc&amp;#34; , &amp;#34;wenquanyi micro hei&amp;#34; , sans-serif ; font-size: medium ; background-color: rgb(255 , 255 , 255)&quot;&gt;UPendingNetGame&lt;/span&gt;&lt;span style=&quot;color: rgb(18 , 18 , 18) ; font-family: , &amp;#34;blinkmacsystemfont&amp;#34; , &amp;#34;helvetica neue&amp;#34; , &amp;#34;pingfang sc&amp;#34; , &amp;#34;microsoft yahei&amp;#34; , &amp;#34;source han sans sc&amp;#34; , &amp;#34;noto sans cjk sc&amp;#34; , &amp;#34;wenquanyi micro hei&amp;#34; , sans-serif ; font-size: medium ; background-color: rgb(255 , 255 , 255)&quot;&gt;这个&lt;/span&gt;&lt;span style=&quot;font-weight: 600 ; color: rgb(18 , 18 , 18) ; font-family: , &amp;#34;blinkmacsystemfont&amp;#34; , &amp;#34;helvetica neue&amp;#34; , &amp;#34;pingfang sc&amp;#34; , &amp;#34;microsoft yahei&amp;#34; , &amp;#34;source han sans sc&amp;#34; , &amp;#34;noto sans cjk sc&amp;#34; , &amp;#34;wenquanyi micro hei&amp;#34; , sans-serif ; font-size: medium ; background-color: rgb(255 , 255 , 255)&quot;&gt;NetDriver就&lt;/span&gt;&lt;span style=&quot;color: rgb(18 , 18 , 18) ; font-family: , &amp;#34;blinkmacsystemfont&amp;#34; , &amp;#34;helvetica neue&amp;#34; , &amp;#34;pingfang sc&amp;#34; , &amp;#34;microsoft yahei&amp;#34; , &amp;#34;source han sans sc&amp;#34; , &amp;#34;noto sans cjk sc&amp;#34; , &amp;#34;wenquanyi micro hei&amp;#34; , sans-serif ; font-size: medium ; background-color: rgb(255 , 255 , 255)&quot;&gt;是客户端的网络驱动器了.&lt;/span&gt;" style="text;html=1;align=center;verticalAlign=middle;resizable=0;points=[];autosize=1;strokeColor=none;fillColor=none;" vertex="1" parent="6dMJGXCS0I9ftsZN87XB-1">
                    <mxGeometry x="-485" y="1820" width="480" height="20" as="geometry"/>
                </mxCell>
                <mxCell id="51" value="UPendingNetGame" style="swimlane;fontStyle=1;align=center;verticalAlign=top;childLayout=stackLayout;horizontal=1;startSize=26;horizontalStack=0;resizeParent=1;resizeParentMax=0;resizeLast=0;collapsible=1;marginBottom=0;" vertex="1" parent="6dMJGXCS0I9ftsZN87XB-1">
                    <mxGeometry x="280" y="1750" width="330" height="86" as="geometry"/>
                </mxCell>
                <mxCell id="52" value="class UNetDriver*&#9;&#9;NetDriver;" style="text;strokeColor=none;fillColor=none;align=left;verticalAlign=top;spacingLeft=4;spacingRight=4;overflow=hidden;rotatable=0;points=[[0,0.5],[1,0.5]];portConstraint=eastwest;" vertex="1" parent="51">
                    <mxGeometry y="26" width="330" height="26" as="geometry"/>
                </mxCell>
                <mxCell id="53" value="" style="line;strokeWidth=1;fillColor=none;align=left;verticalAlign=middle;spacingTop=-1;spacingLeft=3;spacingRight=3;rotatable=0;labelPosition=right;points=[];portConstraint=eastwest;" vertex="1" parent="51">
                    <mxGeometry y="52" width="330" height="8" as="geometry"/>
                </mxCell>
                <mxCell id="54" value="void Initialize(const FURL&amp; InURL);" style="text;strokeColor=none;fillColor=none;align=left;verticalAlign=top;spacingLeft=4;spacingRight=4;overflow=hidden;rotatable=0;points=[[0,0.5],[1,0.5]];portConstraint=eastwest;" vertex="1" parent="51">
                    <mxGeometry y="60" width="330" height="26" as="geometry"/>
                </mxCell>
                <mxCell id="55" value="FNetworkNotify" style="swimlane;fontStyle=1;align=center;verticalAlign=top;childLayout=stackLayout;horizontal=1;startSize=26;horizontalStack=0;resizeParent=1;resizeParentMax=0;resizeLast=0;collapsible=1;marginBottom=0;" vertex="1" parent="6dMJGXCS0I9ftsZN87XB-1">
                    <mxGeometry x="285" y="1630" width="160" height="86" as="geometry"/>
                </mxCell>
                <mxCell id="56" value="+ field: type" style="text;strokeColor=none;fillColor=none;align=left;verticalAlign=top;spacingLeft=4;spacingRight=4;overflow=hidden;rotatable=0;points=[[0,0.5],[1,0.5]];portConstraint=eastwest;" vertex="1" parent="55">
                    <mxGeometry y="26" width="160" height="26" as="geometry"/>
                </mxCell>
                <mxCell id="57" value="" style="line;strokeWidth=1;fillColor=none;align=left;verticalAlign=middle;spacingTop=-1;spacingLeft=3;spacingRight=3;rotatable=0;labelPosition=right;points=[];portConstraint=eastwest;" vertex="1" parent="55">
                    <mxGeometry y="52" width="160" height="8" as="geometry"/>
                </mxCell>
                <mxCell id="58" value="+ method(type): type" style="text;strokeColor=none;fillColor=none;align=left;verticalAlign=top;spacingLeft=4;spacingRight=4;overflow=hidden;rotatable=0;points=[[0,0.5],[1,0.5]];portConstraint=eastwest;" vertex="1" parent="55">
                    <mxGeometry y="60" width="160" height="26" as="geometry"/>
                </mxCell>
                <mxCell id="59" value="&lt;p style=&quot;margin: 1.4em 0px&quot;&gt;&amp;nbsp;&lt;span style=&quot;font-weight: 600&quot;&gt;UPendingNetGame&lt;/span&gt;就是用来重新连接服务器的, 即用于客户端连接服务器.&lt;/p&gt;&lt;p class=&quot;ztext-empty-paragraph&quot; style=&quot;margin: -0.8em 0px&quot;&gt;&lt;br style=&quot;color: rgb(18 , 18 , 18) ; font-family: , &amp;#34;blinkmacsystemfont&amp;#34; , &amp;#34;helvetica neue&amp;#34; , &amp;#34;pingfang sc&amp;#34; , &amp;#34;microsoft yahei&amp;#34; , &amp;#34;source han sans sc&amp;#34; , &amp;#34;noto sans cjk sc&amp;#34; , &amp;#34;wenquanyi micro hei&amp;#34; , sans-serif ; font-size: medium ; background-color: rgb(255 , 255 , 255)&quot;&gt;&lt;/p&gt;" style="text;html=1;align=center;verticalAlign=middle;resizable=0;points=[];autosize=1;strokeColor=none;fillColor=none;" vertex="1" parent="6dMJGXCS0I9ftsZN87XB-1">
                    <mxGeometry x="-445" y="1865" width="410" height="50" as="geometry"/>
                </mxCell>
                <mxCell id="60" value="" style="shape=image;verticalLabelPosition=bottom;labelBackgroundColor=#ffffff;verticalAlign=top;aspect=fixed;imageAspect=0;image=data:image/png,iVBORw0KGgoAAAANSUhEUgAAAxYAAABxCAYAAABIpzXYAAAgAElEQVR4nOy9fWxTZ7ro+ztnV3JGjI7RztVKxUixmq2am9GNO0VxBBJmUw1uc4VzkpmYj8t4kzsEElE3pKQ0u9TgnW3w0KEQCsGDAk32JduDCpiZ5GCkdMxWc3AkUBz1w7kaLq52KudqULN0M2IdDWqsw9bcP2wn/lj+yAcfbd+fVJV4vWv59Vrvet/ned7n4z/99a9//SsCgUAgEAgEAoFAsAT+89PugEAgEAgEAoFAIPj2IxQLgUAgEAgEAoFAsGSEYiEQCAQCgUAgEAiWjFAsBAKBQCAQCAQCwZIRioVAIBAIBAKBQCBYMkKxEAgEAoFAIBAIBEtGKBYCgUAgEAgEAoFgyQjFQiAQCAQCgUAgECwZoVgIBAKBQCAQCASCJSMUC4FAIBAIBAKBQLBkhGIhEAgEAoFAIBAIloxQLAQCgUAgEAgEAsGSEYqFQCAQCAQCgUAgWDJCsRAIBAKBQCAQCARLRigWAoFAIBAIBAKBYMkIxUIgEAgEAoFAIBAsGaFYCAQCgUAgEAgEgiUjFAuBQCAQCAQCgUCwZIRiIRAIBAKBQCAQCJaMUCwEAoFAIBAIBALBkhGKhUAgEAgEAoFAIFgyQrEQCAQCgUAgEAgES0YoFgKBQCAQCAQCgWDJCMVCIBAIBAKBQCAQLBmhWAgEAoFAIBAIBIIlIxQLgUAgEAgEAoFAsGSEYiEQCAQCgUAgEAiWjFAsBAKBQCAQCAQCwZIRioVAIBAIBAKBQCBYMkKxEAgEAoFAIBAIBEtGKBYCgUAgEAgEAoFgyQjFQiAQCAQCgUAgECwZoVgIBAKBQCAQCASCJSMUC4FAIBAIBAKBQLBkhGIhEAgEAoFA8G3m0dPugEAQRygWjxlluJPK6u103og+7a4sGGW0D8+1IJGZ3G3kYScNjQ04h+Vl+c7YnW5au3yE83zn4yR0opTS0iZ89/O1iuJra6DpSIDl+dW5iU348PR48AxFiBV9lkLokgdPT4AljbrxbkpLS+keX8pFBI+dWPEj43vD5x4adnXSN64UaBgj9MF2tr/tITC5+K8LX2igobGPcNblg7ir17H9CcwVqqiNDTmIp6Ud31SR17jvo6m0lKZrT+UXPBkSc13pidAiLyATOJRjDKgQHy9OAstxS2NRfG1rqGzzLW2+z3P9wIkm1rzWTejh4i4hj3po3V98/+RrTUWsw/Mok9GC62NsxElpdS3b+4t5Qlk9ij/fQ0W8x5MBunc10D3+/Z2Xn3vaHXiiKCG8A2OoLTXadTZs1Vqiwx78XxZ7QT2WNjO6XIcfBjm5vw+ZZsxrc7ZaAAqhS17G8gjdyd8BUQI9fiJ5rqbfbMdcketojPDNTpw9MH3tPq6NGvVmD6MER4JodxT3C/ISC+P5Jze+cVAqjHy0cznu2WMgNkX4UhB/21uczzgkDztpuVDExFVp5/xRM1LeRlGuHm3FeRPgOrEbl+lYqy2mg0RvOnEOOajJNz6Xm0cxlIez838/p0W7YpFtM49TglabYwwmiCkKc2fk++7HRNr3Z1G4/wvmYYjuHTtxj8rwgo2LvzuNpXx5v2LZeaigLLNltWSFFk3GSib/+xjBIT+GnUfynzwTwHskQEDSY+8q5tuSc3D63B9TggRHNmQJN8pNH91fRTD/nb7Au74w5saaEiU8pQAK0c+iKEwTGQkTfTTNvdEIMnYG77swpQ69v0QJXvPyxd+YMJ6zps0PyrgX722o2WnDmHeqSdwHarDtMFLMrPRdR7mvPgbUiI8XLbbleBc0z1NW+g1yTyutf6dj6ICRZZ1pNM+z8n9OER33s7Orijvvmxf8vL+ZDOIb+ALWG+ltTBtxxY+jhPzGnIwDECN8oYlt73zBhvPDGddOJcbYiAe+MmAyGhbY+8TX3w8SxFa4YVkJD24H8Ty8SuNl25Nbf58hvl+KxcMogS4nfpVDlvNbsFWD/H87cR4r8npVLkxt5hwHYwTfb8EjAy+E8bQ04FlAV+sOD9L8k+xrRm86cd7WY/pxWfqhxEJSk/gdIDPR5cT9ghGTriS97V+mCI5HcazLo1jExgj0AFIH5nXLLBCpfyHhc524x4FqF+8uWKmQCRxqwXM313ED9nMuzMuxuk+EuAo0rzUsfAJPLvjrHAUFjegVJ+03wbjHgeEzN+7N2/j6t70cr02/N8qXQcLTZRjW63NOzHGBQd16q99sx0wAz40MNXRqDICxyx48tzNOKlVZCD73UPGae/7vg8PMHDCqd6hQ28zjmDkd+ghbTkU4hKeilrkz8n33YyHj+3Ogq7awyVLHlm1WjEsci9Fr7rhSAfCVl6YeC5OLWPSfJKFzFdQWO78WiePjGTqq0z+LfuUHDJSV5n9Dw1fO4gUsR9/AVJQiuhClPcr1AS9gw/ZakfPZ5300HLmuesiw5zyuWonCY01Cv341qzfqqasuY3YaSFU4K2z8+pSfNftbcb5i5OLW+b7FogGcXdDbWEixSNwHetmyI/09yzfXLAxtEQrOd5/8Bos4hl1nsA9vZ+zBNNEZhbK8kt1CjRwajPuO4xipxd2/D+dP73C6dmEPRbfz15y+sYb2Fidm40Wsc+Mx9zjKIiG/MSfjxPtm2GFnS3cDnpZWDPph7FUq5yq3uN4DVFkxqR1fJOrPxkDdPiOeQz6u3XmV5kqVe12iZbntTM8S3y/FIoHl/F0uNiZW9fs+mqpaM1vQO3ER66pcV5Dx7aqklTKez9Eiem0fLT3xRV8qKcnRKoOEwA8SGw7nabfuLc73W9MFU9XfAWw/wmCmgDXeTelr+UUg5aYPD2B4vS7d2vWYiI176DwSAoy4TthZjE0hbjHKdXSZrENAOHQdGQs1Bm2WhU+qdTFYm+fkSS8NxnZWSwWkykkv/7jXD9Uujr9nxzBjRLujge5f/IxY/+85XT8vDESGGmg45mB4poNcU3NcYFBTqYkrmM9NERgJpB/4S9xXIhIOMJviJjL9xyCRdUUsBMtKgPaDXkxPywIUU4iEAgSG7qF/27FoBTU67qdv3E9f12FMe9/ndJcF3SJn4R+sSF/cpbKVz7RSASD9by5cGTsDD/7oo/tKGPMuF6ZcOy5TQZz9AdjUjGt9+gjQ/21mY5npfwcwos+3gzMTwHsmBNUO3rLMP1B53Is3YqBjx+Ism3NM+Om7CayHyCVPHsNSigD9SCE4EkRXbaL8h4nDiXUha1d4YwcX929AW1LG6hfL0CxAYNTtfBfXbwM4z1wjVN+BcRnn+HxzzcKwFKHg5KPwDv8cCSMKoat4esYKt1czrKii7jkQDQFMEejzML0y4+CLFuxzxiOZ6/sraR0q3CUAvmxi3blCjVTWikkVw1IG31QYAAO6L714cnp15FIGddgOufDedHLySoi65dxVWWHC8S8dBDd34zzQTc3vOjDezSHjTDh5pdRZ8JJqxopsChuT3JsrVY+nyaDfQb6XisXS+Zqp28A69aPR4U5aW3xQa8H8qZ/Aig0MDHRgzGcRmwni3tVCEDAeHMCetVvxJEla2sw0b17i4loMD0OcOOAmBBiPHs+2OMxECP+HHkNR72H2pBk6UbqMVtIwwcthqLezYRXEbhdr4UvwZ5kgYNX+IHebhyG697YTwMzpcwklq9SE49Ig7Gige9fPIEO5KITUeJGZxpQPpny0vtaKr9yBqRJY0czgteb0kxIKqM09mDLJJpXqp8DNdpxXTGkW1ieBfKOdv9/pTfjWWujdvyxXJXiuidqZXoYz3FGKRWo8w/D9lbhHomirbDj2PklFb3Hoau3YMxRv+doY3VfC1GyzY8+1mI/H4oqFcQv2tkK/82uid4GNBvR53snwlZP0yRL2c3YMc1KOwheX3bj7X0Jam2+HrBAyvlPOuL/9qBf3aL622QJ02juXyxCkXU3NelPxLlYxBWXOvKrD8uthzKv0lM0mPi9ZXrXUcuo2Z+rLCjfMYprrbetov7HUHiR3lxZwys2+hOtpAep72bJDT2Q0zDQACvcUgCjh0WDCil2GYb0S9xxQvUgY3wdhfJkfH6xJUSwSJJXIlI+id27BTzaQ6ZCQj8i1BjoHVA78eQJnV6H91nif3Xlj7tLHcppFv9zC8Rtmnq8sYzbx+XINOc3aAxw/cJPaE27cA5sYfK0KV5crcTRKsKuPAGaau0xFzbVxY0UM+fMx7v0F5p/vPcZGg2gBbcVqLEODc7KGMjOLtjTHw/iLglKiRZuQuLUVz7oJaGkIxWIxTIYZk0EyZPvNRoc7af1FH6FqB8PnOzDc7ab+NTe1P/+GwUsOTKXZl5NHu9m3x01AljAdHubim8vsI7lQkpa2HTbqFr2wFksU34GddE+AtLWX3r2ZikwU36F6Wq/8APN7/xcX9yzC/WiOMH2NTtQdDeLMRgHGOLm3AW/i7Zh3QQAmgvgmwPK6EQnSArmK2bKe/uMXAJSv0KAocXeBdB/x+P1wj0tYz/86XbApNeG48BHKnu307aplNq9PaR4ehuje04oPK70XOjA+p6CoeS48+AaAbx6kHn/A7COAWR4oCpqs/j9e/Hud+NambqU/AWYfLDzwtr6Xuym7ijElSvjmNc4ec+P/ar6ZfKWV1tV6ht5czLjWYmw7zWDbgk/8ThK+0IBzGGCWqQlA8tDemCq2pbhDTvk4eSgE9b28kRY/psW814G5v532oz5ezdwZLpLYyFkOD4Hh4DDDy+3zvkhk/z4qW3LvJFjO3+V9IHP+49E09wBOtdBwab799B/JaVwDYMVKtNrFCFAxSpZlPpGw9s9gLaZpUnlbkAtlCG99Q4bS4KWz3pv4d9zIZZ+cJMNkw9iZCrZ/YOH06BnqMj0jnlO5ZxlKZGy8G/exbkLVK/nkhh1Dkfer5E6BBm9+xOS+muIulkH8N6V+Umi3xULvRHzEcfskLY3e+UPT9wBUx6F67zQY97k4/sMSrAkZwp50U5/w4AMMXe9yvC0hXyRivUq02jzvpsKtMw0Z/e+maaQ73vvzd7nYaEJPjNCJbbT0lXHk416VtSlGsOsnNPlfwnX2Iva1z8Js8HgRikUh5ADOvR7C6DBs1FM2E8Z72UcEI66fpgrBMSID+6jf70OudjB8JbFDUd3B5RvQ9Es3DetD2E+cxrU5IQzKIbxn3LjPBZElE/aBlGP5GGqlslTdZmzJ/OBYLaULstbHCF47G7e06coes2tFjNCJVlqvyCBZef9wtuVWHvoVhxPHra8tRamIf58yEiRYsJ1MZFSe276ed0GIERyM35vyv8nccVjYlnX3tgq6E/+e33aN4ttbS+sVGePBYc6oKQ3lZo5f6EV5rRXfoW6sG0+TuZOen6TiYsTx8Rms5SBfyy9wpPZ1nnbW3WjP6P/jQkKSZGQZwM/hY76soNMFkxYc/hgCqzPQaHUYGzu4WGvBe6Ce9ivzqkroSB+BfziNRcXokElMUZh9koHpqcHWi/ELTtznJ6l88heZKCCVzlvLZ6NBQl8l3SEVAj2H8WPm9CEVxaFiC28d7CNw7DAnhs0cX6A/OQ9DnOjyIEvNnPllXKmITQQIrzJjLOIZPy4kyxkmJ8/kblCihQkzrq5s0c28KfOTB4RngnmTg3z30adYrBVunWqie8TG8SEregDK0AMaFeF1ZWL5KNFqWbDuNeVj3z/Ed/hNP44RPOcpYk2LJxsoyA8WqwzO/6Z5JOpOTWI+lfucEi2EN7lwvZx5xExWbx+EUUbzjLgVJpqzjCwKgYGzhDFzOsX7Ih7rVcjlXcuGfYMM7opf59apJrqZ3zma33XQYNxqY0NfK617VqP7Xbp3SmzETUuPjLTViuV7oFTA91SxmLp5Ac/9hDj2IMwU6bFtaUgrWTkSJMi8/76u2obrX1zpLjv3A3jO+GC9g+GBjrRtbe3aDgY/1uNsexvPzjX4NzXTWDnNtR4/UUBX72L4fXvxi47Ktigztzi5qxv+45v0tjuPM9hYzvRUjLLyxBkRHw1ve1Fl8iqenieTVjB6ZR87j8XjKhz/egZL5gs+5ePwOz5kJKxH310GK7WRjpkZOvK0iLtN5ZhwZgL4Psh1b1Imodko4a9K0L1QhraIbeqyF4CHkTmBU9raS28+K2e5lTP/DcxKHeZSKD5BYlKRA+v5Xjqq49+QU+AInaViWzcdlyd5Y86Il3BT4DS3e+ooA0oeu5Bbw4GDOk7s9yAD8pXD/Kp2A731i7Alz4Toe+8knv70VLxSpZU33juCff38NdVd6Py0VpUmXMEKLUwqrNBjOzFA9G4t3RPJD71cH3VgSfwe+VpTmqLn+HgGu6aPll92xnc7krshGS4ycQuahsDbFWzvT35q4nRoMNulZ8LDKxudc6kxDV2f8Enb/MKr3OnDfcpD3820u4S+8Q2OH7VjSrv1Cfe4OaXawfCMHc2FFv7Pd+Jz3JPwKTbsGWRwTzzFd8Uv+rCdGMSxNn4s/ixLKHkOotc62dcvYzz6bvy+pCpPsWkikWlmV5nQ46HvvT62vLKQGIQYoXOH6Z6QsPYfwFwKTHpp2thOQDLRce4ijo1PyQ1Co64Yxh6CJvkOV9tyu6Oln4Vs2oCN1c98XM/jQ4t+vSmhRMhM9wPoMKw35Yx1WzgJ4ZyS+H2eCtC5pxVfYhkKDriLUCoA4skGjHsnmdxT8sSemZpSxaMYMTRzhgbjDntx9ysmY3rFBgtxI5q8Tl+/jLSreRHeFxqknyR3iZLPN4f7YbmVI+8FuPXOGOEpMFYmPp8JcHivJ25sPrFEY9i3iGdUsYihPNQ8Nqvc1xOh+fzRj6b5mjyKRRHCKACrLJz++FOiJTp0av1eZcLWtofIqJvAzT66E36cxr0XOb7fjKEopSIhvLKamp9IGS9sDYbJN0C+TlPpGjj/KecnJ2l+TktsuJWWtlus3nuE429b0a+tYbLRpSIQKgTOuQlkfvplkPC0eo+UiJL4/xjBUfUXXltRg2FVem+j11qp3etDxkjzb+eF3JQW+I4dxieDtPV9jizG5WeZid7wkkMdI3USio3eouWdbl4dmOT0puImwfAHrXGlQjLx6t9N4+8pkEPsRQv22oVZP2J3TtB5LIS06yOOp97PHAJH0gT1g5WpVrWkm0IJK7XaJ7RATTH78nnOt12loUcGZHzvHKbO2JutjOYh9qWXff+1fW5RTkW+68NZf4vA4QEuP25XxBVGbLtMdO+fFwl8f4zmVpSifvYd6sRflL6vZcNmO/Qnx08Q32gUW0X6+xP9LJCSb9+AdWNSqUjZec26tkzkmpOGYADHv15WeWdTrj+0j8Pv+J9K7Ybo/3MdsLB6bmwkg7lXw6ft/Kwl/tvkQ69QeqjAxSbcnPXbilaKZu94aD8WQtray7vJ51lh4+Id6Pw/2uluXMvE0cv07jUs/d15NO+OWIiSFVo0fw7gfsdDbMdFXMl5SQlwuGI7oaOf8EmWG2o+UoWuZ598axgAkYQC/acwwVF1h9ayShP6hew45QmIzhu8DaQGQSeF87n5Cx06KUq03MHw7/LEbk4F6Nyznb5xHbb+xrjwvuJJzdlx5Jtu3u6JYRtwYU4OuZuHqfhFCNfIJ+oZnHKhkTCsTx1x2YHx2rRUtEl5xoBr53Jny1MLyi9jS+NqZm968CTku+k7Z+mTwVQLY/0e5tMCFChV8C3nGVMsFEI9+2jtilu5pEorB86doblqeZf5mv3nC2SFgllFQSlCsUnz0SvVpQ2UmBLl3mgQ37AX/6VQwkKqw7zLjkV/D39vH4FzTbxyDqRKE69uMmM0GjBUGdCVqrk75JvMNWi1GpTbYfwYcOl1aLTE+9bYy50fedj3Riv1D7XcOWVWdf2Ijffxq/5sUSCedSj/fQieaCJ4Qv1YprUyeiWpVEhYz2enT423ccZdpKo6GDhhWd4c8PeDeG+AdY+p+MnmYZC+YwGQJCQ5n7gUY+xmNzJWjHrm4ihykXQRMexx4fj/FBprI6ypL5y1wnLOgr3YvgMQxvPLbsLosayI4O2ZnxIXlm72AeFJ4LHH3qQSJhbTYGo7Q/Pl7fTJgOzj7VNWTMWmV30YxJ2qVLxgwfXPuzFoZ5n+pI/DHwSQkQkeOcyHP42nLNRoTZg2AtP3CN5NnhhP5RlP56ibC8ZbKDrDBiSC84L3l1FkjKrj/HrPScILkNA168x0SB66k1bNkRDyTl3KtWVCIyl2zo3NWBILfGzEnaZU6OpduHYZ0M5Oc+tfDtM9LIMcxO34kE0f58redh3PqfDTKQiHTCQsg/RSSkaob3ggA5vLqdJL6PESnUvDnXBxBbQVBnRaAC3lVTpWytfZt7Yd/6ELBC2OorLjlazt4JMbeiIvWtLWAs2LNk5/rEPa1UL3oVd45Y+9/P6UddEZwQC4Me+OWIi4u+JKGApy1RDFtSnx5BSFaUC/6vklJbl41rPcFLOGATDQSYNacDOJe7gQxaJgQHSO4G0gMwg6eqOT1p19hF6w0fu709TJydjNr7l44XhW/Rr5ppuWtm6CmOi49vR2yaQfgn/0Ki995cKcSEjz4H9MA3p0ZSG6Swun6FbHQu/EG0xlBMZbUlPRTng52S9DowNzeXocYSJ8MKeclz/2AubS+RfZ2+ydpSdcY+oJ80wpFuFz26jtmnfskO/66NwKZf+2MMvk0vHTvt5P4Sl73hUipih8PRVmYiLM2O0AY7eDhOaCNHUYd9jpqLdRZ9LPWYdte44gj1/n6mUfXn8Ab08wyyIuVZqwdV3EsSmyoJfQubEUVfH0q+1UpE6cSbeKWBiPw00YI66jJpyH5r3q1VJEJkmmijRs7cD6Y3Vvf60u+YrGCJ9rYtuhQFypOKcefBwb76Z1rx8w4jhxIH82rSzc1Jbmu0sy1w810DlkQHl5OK/VNZXwgBuPbMBxvpkvWvKMjMmreHoAfLSv9RUcQ3PxCStMdBwFxlMDw1QW6s+7qfypG7JiPAoRS0SaR/D3pNdyWXC62WmesGKRoNSM41Qz13/RF7c49+/D/dM7RfnAx59f4g/JSu/vUoLs1tdQIlfQdAkgxNnBILurTHOuNemuSTW8dW6B7k9qSOXUgGpNnay+T3yN6cBHnH59A7oVIMuz+ZUpTQ0bdkh0J932hsb4QrHOWQy5f4vrKbFA5sZkppQwHx7zzCkE0tZefp8Sy2J6uQRZ3xSfo8bPcn10N4b1au9PmPC0iY7Lp3nDpEP7SEaezV189MEf4+NMtV5KkgLpQOeKfcbuER4C2oysTh6MTREZAQ7o0FUYuTi5BU0xwSLaLex+043/UojQZzFMRfpHa9da1F07Sk04Lg2hO1BP+6VW2n+sZ3BBuwQZVFnpaDSkx1gl0vJmzsfxLDc6XtoK3Z9GiGKIP9f79/Aj4dBJ6H88yOBale+566PhHS+Wox+xu0rdt/NZz3ITdwECkspi42luvx935cyLfJ3Ote34sKF/YQFf+CiG8qKdmZmCvg7z8V6qMUwxwue28cqhINL6Dgb7EwlgyjsYGtHS8stOml6+iaXrNO/vNaG56+Pk0V/huRlFWm/nYo/r6RbNrHgJK918EYnCT+IzifzvfpAclEt69ClZlVKJXG6g85IF1+XdGFSHnJbVpQakpDeJSuY0OTIWdxO+1s66a2orcS45r4CL66MY0c812FQ9WWRCN6LoXjMiPVPS9ZPlGfrpYW6eUfEWl31cvX0EyxO1hpjo6H+L50ca6BxIDcZKMs2tY610T76EbhVAjPBvGqg9kXQukNCvt9DcVId5o5ENlTo0z0XxNq6hYltqOlQNUrUVe7UV+/sxlKl7hCfC3BoJEApPxGtaVNmwbdKSHiimxiyhc9txD0tY3zuAtruTPq0VV5cNww9zngQ/XI02pTid8fBxdhtvpiklaikikyRTRZZv2oM97zNSCB7ZRsMHIUCH7fzvOa3m3jSXelZKiwMonuyUctFRZzzLFQASda878Ay5cf/mOraisr5ECA3GXYia1ynsy9kuRnDATQAjHecdbEisWvEUf/ExtSHD4lW2kMUK4BGLtARnu/QlfdEB+Emx6WYTKfiekm+1ttbBmV3X2d4fd4nq23+SOpOrQHGzMMHL83OL1Lw7I15HS81GC1yKi/nypRD3DpsWVUulaBZSU6X+COcPzldpl1YVeic0mP73PUgfuBNjpY/AbQfmhAKmhMdSFJqU4m0TQXxzqSQl9jRn+ASX1mCqB+8QgIx3/B6O9ep3yXL0PI5NiR5rJKQVECpQfDTQ78xyw8wiRzrQuWKfkTBBwFK1et7imPzs7+L9KUqpiLfE9Pp/5+5BKUVISAakLtJPfYUe27lhytZE0O9Z4girMLOnLWP+SqTlVZ+PJcoNBjh0DxnQAfKfIkAN5RJoV5kwvZj9NdHJk4CFus3m3HVGnnWSLkDaLexuc+Pv8RJosxV0xQlf8uIDjEebCyRX+CaRLe8PnPzFVb4YjrD61KcMFlPoNVEMVN2YpMGw9zQfaSO8tNWcJqxqqpq5+G8mvIeaaO9qwD9n/DPSfP4jHI25C6bmZMHJXgoglWOoAue/z404ol8C68p5Hi3SXIxKKlGip4DNdVg2FZceVg2NTj0RASRlAgPWN60Ysuyh2mx39lgiG2LoMH9f1pqoaG9AyphKYuNeOne6+frNQT4/bHomssE9DZ4hxSK2WInpMaBltdHEBqx0DjxAW2HClKq9KgGu3wHajAnhQ4Ox5TgXDbOUVxlYvUotA4qMPALUl+d4UTRoyw2Yyg2YNs+XjY/FEu5MaYFiqcSQx6/j/c2vcA+D8c3zHN9jouRlhcg/uHEemsX1wfvsXp8Zk5Hxi6WVUO3gyB4DmrvFJPJeCDFCJ2pp+CACeQMY51PPGg8OZGRFUlCUYjJo1LClLT0YLBRLVSxAU23DXu+mdegwF0brcKhaXVPRU9fiQGs0o82xcQ0Q+9yDu0dG2nWGNxrn3aziKf701Gw0YVomaVxXusALKVGCN4OwzjY3lh/IEcBC+SrSA1iTqKabBc0Lhj1vGhkAACAASURBVPi4f0T6DPK3EiYoMpgwHUt5sYYDLeb972P1N8XdmmQPLe+b+bwrT5S8PEV4IuXvQTcNmZbxRHrDeHuIFdmbxRKbDKfvVpTnzsBmrd+wcFfA6k28UeXGmfjdfXfCHKk1oSFG+E7ffLsd5rkU2PJkOCXuAq4eaeBWxjw2/cf5f8uPct0lK1tM2T2esxpnkExTmZ4kIINEIoFc6TCT8WJyZIwwJppfTnH8iowRxoC1Mj6fxO6HGZsssjL0D1dTkyFQqgWkLiwoVod5z9NxglhdaQJC3JsEY0WiQrnkQJ9zB04hMhGEKlf+YoPfGjSYGt/A2OPk7EAAWz5XymRKYsmOY6eKEhiLEhjowz88RnAk6eocIjCsw1jfjLliobvKudBh3pEyXmIK8lSEsdB1Ahf9eMfj3yxV6vnB3QhRQvQd28f0HRPmjRtYrV+NXtIU4d5DXs+DQqQb8JKsxrARGL9HFCM6okwNgXQ4O1X/HEqE8AgYjuqX5CqkzZOIIC4TlGNutufemYjJBK+dxXc5wB9GI3Pi6craZt74ed38jugcUa6+7yYsNfPR699fpQKeKcVCT9UuCbJ8/CVe0i3vbkWxWaGkKhNm2rl+W8aaYklQRv30AfaNNSnxFUYsmxUio2HGplQupoQSgTvTfDEaJH+yIC2rjXFtWJM5OmMKynQ0sbPhx+8PEJGBFyw4Lv+ejk2JV7G6g8H/bsTzTjvO+kqcL5hpbrSwwWSgqkrHyoyUlbrX7AxWmRbodlQsGowHPqL3QR8lLbm2ZlNSz1Y7OLI3JYBWDuDcsw/P7B4++W8dKcWsFotE3a4ODg91091zFdv6wtWcpcaOeD70+7nbzD7SUPaCGdve1MVK4cE0wPOsXAalIjoZr4Ox8ocLvAlTfpwtToy/rcO0SsucwJAQKkInKnL6V6unm1VJM1uyhGwjC3HtWmXhyHtWbu1KBOH2ODlRe5yVVcCESvtHs2n1ReS7QeS7i+3ochBjLHg17ZM0C3sGq3+0mPnPgKnRABMJVeFyiHCXCWNsjEDPfCt7Y8pYfZR2l9JSLi+M1ZSpdTlH4GgyTWV6koCcjfKkw4xxb8IPWIjFYsRNMjK3bsSF55qEdVq5fZKGPOmV08ioRxJnKb7hKSyoZsLyoCnXY8JDZCoGFUo8qH2jnudhLt5Q/c7krlj8+NNNLzNVu3G0naWhZx8nN3+Oa6PamxfF19WKH4nmU2/l2BGdIviOBy8gVRrRz4SIyB0MTjswPQd83kdDY76qSQkSLqdjaXVC6nBdtqG9O8aUohD9LEokEiD8WWq8F0iVZpq73mVLfR3Gcg3EZMI3/xCP6+zvxt+vNnMDVR0M33DMr/eP4kakwp4HuQmXBIg8yow701BeYYKeCFMx0CnxWhQbXngeyM6Al0bO5AoqlcMfB5ooobb489VtsmKe9hGoOMJQvxWJEN2lpTnmgD626/tUj8yhOq98d3iGFAst5rYzNIe305eyHW86PFBk+rviKTorVIUJyyZov/IHoo1J4TNRlVrqwLwuc0KK4M8qmJPBkJPtBWsdZPr4KQS6mjjpT43bACQ9ZouLt7Ztoa5aZUdCMmHv/xTblwF85/v4cKCdvqwA6+R3mVSL9y0fOqxHXTmPRq8lUs9WN/PRhYxMF1INJj14+t109pgYWoaCU5r1Nhybumm/6cE/UXhLvDAK07MGdn9ggPtBgvfnPx+bhPSKrOmoZc0C4otE6B6Ux4NKY1PX+dU/+YFmqlRcFvJSZcJaBc4bQRy1FrREmPAD2+K+6Bo1a7Jqutl5srKKrdCm+yzfTlqpskkqSEkWugMj1R/h/a23aLoiA2G63zlbVB0IKMYql8eathxMXsWTlrbYjPnl5f9Gw0YrBhK7EPJ1xiY6MMZCzKk0qnPY3Nk53ARSeHE5+hxj9i8wt3O2JDTU/OI01svtdK6v595AL8crg/iGQHrTmOXalneHhDHOVmxXVajnyIhxUHOvSMagmXe55t2IHoTxfeBL2x1aKN8AlBa2QGfxIx0GIDz1NaAQGQGptTxtvJsOXOQtk3Y+hXnG37r3B7HqyZ+2/JlmPhGEZ+8+DFlFzRJGrqH4zvmRXDFcmnLqBj6heaMB3YpkyuUfzBf3e6QQHCl+/zbd4LGB2HP38B9owJkiD+nX19B8YAM1RiNG42p0mW59GgnDZhuGzTZcPTEUOUokEuFeUjG5P8vUSBRLV3rsYtwlbhE74SkkY9Iyeb7cAISJ/glM/yPCLST2pBmL592EleBJmk6Q8bduzh09Z+XwTNKqzGdTKHg7XttIh2lgkNtrTehLZXy7fCmumhJVXS7mJJpEbJNUa+eNtRmROzNjeHv8RDY141qfWA1Ldd/pHY1nSLEgXvzrxiS7Pw8zPQslZQaMLy6/J3cxWaHi6KjbaaN9pxvPcB3Ha7Uowx7cN8HcY1PJEmJUrbIJELm0jdpDIZoH7uZxvUnUCLihT8RuJNFibqyj7zMwEqTEaMe8rgZ9hTa+8zF7j7HRuCvHvJAa3z2JZ9grQV9v53i9ndn7Ecb+OEaox0dJvQ3N+ualB6IukehwJ60tPmTJSu+F45iztDwt5nfO0OzfTt+xw3g2Di0i9iITHXWHBqk5b0K/LEOskFKZWpE1nZyB2pooN7OuKWHu2T0fiFs0BiwtZpxtXq7vt2D7c5ALMjSvTRQdVLMmq6abzYNWH9/2TtR7YcSbQ2mLEryWaqWyYNAv9HlKWA4ewTqSyOk+4c8dCF1alqbchMs2MNy22K1qhdlC5dXzMeWnc297WiyB9KadLY8jGD6hTMbdwML4RsOYuD63pW94vS5tDtOWpt0lykzD2FWtucvJ10QnAHSULYNhQ/Oijd6Py9Du2U7fzlrC1c8TwoCrIft55x/XKym4h5YR46DmXpGMQavZZp83kN33MVZAsUgLZJ/KCFa/H43vJJWtXPgOoaYc/UbwTE4RkxXuyVD3v6ar/lp9Dab1Etyf5kOAjL91BhOmaqCk+Ao6zxylZo78q4Pwa+54UbMrydpTCqET26hNpAzOW08IHcbNeb6juiMRvK0QHo2yen2OAq+JWDa1dcBwYRiDrGX1i2Von4tx77N7JBK8MzUxhppzRDZadC+beLXFnhUTkOTr/3cMMFBWuvzve+oumazcQ6aOqrTYwrjruWkVyNMfAmT8PV8bpGDl8ASFqszHyZOkJ7GjYNycy3iiw9xmTxTxi+LbexYkK0eOubLqbUUHgjiR6Gg7gr2g2/V3g2dLsQB4Tou+Wi2W4Omg3dyMq9qL872zbFmzgev7+5CrHbybo66CakGYWCgePCp1ULdJylO9NlkjQGVJq2rmo6HmREpAD8Er6nUO5ienwrsnjtdPP/Ut7Nh4N62/6COUKJKXswheqZkD71m5vsuH2+HBlC9/d5FoqxaQbrYgOZTKL71se81JCD323w7xlpqFuCRXLwzY/m0Q41/mP5lTHGMxFT+5/Ohea6ZZ2o77nI+SFReQaca8Thvfsj+ismWf2KL3Ohq4lSMBQN3hQZp/MvcNmBrNMJddKoTzl03wgYvda3VonoPYVAjv+610pvri7tiCeTHKbbmVd48GuNWiVnMhBY0B0y7wJIvG9XzI1V0mbGpjTZZRJCnPuAgSuqtgK5QFJ6PGwIOpMUIfe/nVMX9aYT6qHQx0PC5/XAOWXSaciXoZ4fBNbj6cK4mXUrsijuZlE814SG7iewau0rzeppoSVZYVJGkZ3p6ZCUIjwEY95ct1E8rNHL8yzPM7d+IeDcOLDmoqC5/2LJE3kF2eYoyFxCWlspLVjae5+OPVMH2VCAasP3q2Mzo9LjTVHfSev0dti5varV9z8exu6NtH04UQUq2Ly8tU0Cw60Mor+7+IZ0HcurArasqN8ztd932crM/lqlaIfJmOokQ+lYG6xxNHU7oaa89FDHr4eigCVVbKHvOQ0657i8Gh3TmP50uoAiSS2hRHMjW+/qCNusz7N+XjV8cCUN/Lnu+JUgHPomLxOLk/hR+wL2i7z8Duf+7At7mb2spu4lWi7Qvw848R6jmMewKMR+sK5EL/Jh4QW6XJL2io+efl2nlR8+NVSc32NIiNd7PtH9yEchbJS0eqf5cjW2/ResXN4XO5XKKyXY4if1rmjucgW6lUCFw+SwgduhcieE55sb6ykBiRXHVLZPxvVuL8s4vefjvGAzPMHCjicqVm7AfN9O1vpRUwHNzCBi3wX8oxbzRnt58KEhyPojfkzgZT/l/S/9bV27EfCcyndv3Kj7Per576GAAjjubFFy/SNb7LkRu+lKrPamjZ8AsHxn53okq5n/aX1xBos1O3Xk9ZCShTYcZGvFy9toWBDP9d6UfpZg7vgVpmQzbKH07z0n6XeirsYmoMqLn9LTO69VbMBONC6t3rXE/GoKTUrphDuwHbYSN9RxKW6KF21oQD2FvrMFWWUYJC9LMxgpev4msYWJb4gGTRScMmw/LmdNdKlJcmBuGXbnY2abh83o7hsVeJXx5U3bQSBohwML7rpC9fzB3TYtwRTw6iDEcJY8T+HyH8l+5RliOV7DNFIt22vOk0n14uHBtXCF3jGYYeQv3+PprWxlVq3Y7TfPSeDf0yjRXdzl/Te7uW1r218DfqKdYXRI4EBrmYHtrHuv15GigRxm4Am2uWafc+A60R2w4AhcBkGIx2GPfjjZQtQ7ykOppVhvSEOxnEdz7md0qWwsrKLTgaI1w41sCqj8w0tzaz++dm9M+F6N7Tig8rvV254ymUO17OfqLwknU3lhe/G8rH90qxkP90j8Vs92nWbsG2tpvOO8BmG40LcMOZjx1wcEQts0R6D5m6AdSXxYPpvsMod7pp+qWboJy7SF42OqwHj3D9Siv+Y4fxbBqi4yeZzyK3y9HjQGq8yEyj2pEYkYFO9vXLSG2DfNIQYttP3XQeN3L58FJ3SuIFv6J/jKFZ4OKn2/EWjt8EcH8J5asScTkVZuxtKopFInVlmhtHIVaYcFxxEdnqnI9jyklCocx6hgtBh7Wrl+tD+S15mp8krZPJ3Y0o/p5O/D15Tkry8qs4qrpxJ4VyOYKvxwlY6M23YOdEwrT3CMcPWpdNeMlJIk4scBOYmM/6NF+7IhUNhjd76b1XG0+iAPCVH887frL2RxuWoW9Jax4W7PXLmdx33kfefPQilvDbtF9x8srPYwxf6Xi2i1I9p8W00cTz/0sON62HQXy/CQN2Nry8sEsnay1FIhHG7twidHsMkGn9aR9gofdG3dL7n0J6MPLCSM0+lko0fAsZMNcvPg1pKrH7YwQ/Sy/JHb0dIHC7hrKN+kUXwExHh/XEecIjDXhanJiNF3PvzBdD3gQG2cQKzDHK7QB9gGmTejzc4omhKF8TnYgQuTvG2O0QwduA3Mor/cDmXobrl+d7IuF4zJ6iPIAnHBKtrbLQcd5Cx9EQvoGz/Oqd7fS9IyFJMrJsoONGHk8MJYB7c3t8l3hcy6fXlq4sPwt8jxSLGPc+8wF2DAvxs1LCeF7fhvOOhL7yB0RutFP7C5nzpzpQyag4zyOZ4Nl9tBwJJGIHirBM3o/yBeRNPfmtJyYTPP827Ynq6vpdDmxlUwRHp5idjhC5P7/X8GBqjFBqWsi0Csgh3P/oYVNWlqjsuiNFB3wB/M9F/ap0HskE3m9h34kgcrWD4bdNaFfUcOTgH6g91sC2h72cOVxAqPyPb3IfS6TjY1fVgieh6O/O4v4SJEnC37aGNTcdvPu6TT34f5Foqux8NGrC2/MrunsC6a4/QLxgZDOOw/b871CxlFtxnbuOf29+JwFdYy93flSD+5SHvpvZvZIqzdQ1qbhhaozYL/Ty4MBhPKOp2lLJfKBmISQ9ph/XYGi0YHvNjP6xJkpIRcerWy1wM/XepNSuUGlvPXcH3Ro3J3v7CHyVeVxCX1vH7o1Lc1aNfellX6ISuvmUaxnjvOJFOHcmfOR/vdeC7lEVJdTSesWLd9SGI9EyM41yOg/I8wY+PtTqycwRxXegBY8MxqPWoiqBzxNj7FQFDXOKtA7jxlexN5kwvWzgpUo9kuKjiBxGT5FEJjtMWNYuQfx6pBAZ8fHhhfl5QFfvYnC/gfCpdpxDfpzb/DglPdZtduoaTZgrdSop5BfAChOOf3HApEUlhvBpIhO40geYsa5fZpE2NsbJioZ5o8QLRkyb7OzeaMJgeAnDCxLK0FJHnELogyZ2HgkiSRLBt/fRWdbL8c1PQTyXjNTt2M30v0/hvBJGlgHCdL/RRKzjLd5oNGbHuGh1rK4GxkF6sYzFJfp99vj+KBaxMW5dBnbUpAuis7MooCrIy6Pd7NvjJiBLWE8NcWZnGWPHmmg54aZh2BuvdtliyhgsMeTRDzn8zll8d+WEu0N6QHJsRmb2ufhJJSsSNS9mwvhOefCTP/UkAEOtVJaqB5xbMj9Y7oI3S0S56aaha17IifS309Cf54QUpEoTpo3x7NGz0SChcTed/ZsYTqteOx/olUQ14CumICvpYQqxqet8OABQlpaKt2hiMqFrZznZ7SHwFUi1Lj6Zc7/QYDzQy8Xoz2i60Mq6m9dxHHwDmyVjsinXYwV8fV78L+/BlDETPZgaI/jbk/QBto01aImhzMzOvcklK0qYvXs9rbJykui1Vmr3+pG29jL8wQYiPfv4x2NuWofctEp6TOtMGF/WoauIZ6ECI4NDgzAbJDiq9oNnmb4bAeNurJm7DqUGbF0fYeuKoSgK019+jeZFHSuhqHzq84GPxaHbepGZrYXbadc2c/xyM8cfKigPp4lEZpFU0i9nonnRimvIikORiX4ZhXI9ZdrUSrnZBQgXS+5dsAyKvEdFX28OLcY9x/loz3FiioIiR7g3K2EoXzk/X6V/A9b+mXg65oIoRC452d7mJQoYDw7TW0wRsSKvHTzWRMuJIGw9zVDSR/45HdaeYcqawLRWQr4Wb50rjXLOq38ZJDwNEIkry8o9xkaDc2tH3OVS4V4oSDChOCqRuOYSDQcJJm0mM4kA3D+FCY7GPyyrNBVQNhWCR1LScRfc/c5Eg8HSS+96HQaDHp2k8g4WWdqjWNKSpCyIZIalzM8Tmew2WjEtNNnBwyjhkWA8DeulZM0JCX2jA0dbM5aq+FM09X+KbcJP3ykn7qEIvp52fD0AOoz1mzCtq6HmZQMvvViGNnUee/Q1U5OARM65TbO2A5dKZfPYg68X9ltSxk0xxMeguqkyducCniFgh4265U4goTFQd64XU4WBl17UIRVdmLJYovjbfkbTpWhiTTMSerOW1p1ruL7exhs7LZiMNYm1bJ6SFVqMeye5u/UBaHIbF0q0WjTJWk3KF4RvA+syW8ULGwdHfSk1RSRMe3s5vt+M5jMvv+o6i6etFk+bDvMuO/b9NkxzWSD1NN+4j/XhbHHr4reE741iER36kG5ZonmzCa3sp/3nHxItSwioGHDp0yfA8PnttPYE4AULx//tDM0/SUw8BwcZNjhpP+DB39WAv0tPx9AIjpe/Jjh8De+pC3GFAh2WrkHe32vKKu3+9Y0W1uxXT0MnrXfxlqXAZJyR5hCYS2GYRWqKsySJ1GhPA+3mZlxVQa6XllNWYaSmfCXxrBW6xNSnpbxKN/fbcr1ssTtuajd3EzrUh3/raSylGnSbXLhezk4Vqq8fZHCtltWpC7cmwoXKWlXBQmqri8ceFMtdP87fnJ1fsCQT9vPHeSur8qkOS88nDP9dKzuP+HG3+HEDlnN3ubg10WvJzO6DRnzHumlam1vskbb20rE5fvXI+VXUZqURTk+xGenfTv3bgfgOygkrOg3oDnyE+ZcRAh978V/04x3qI1gwFXImNi5G8k2HGrRaCW31M5axe4UW7QotxgV2S6OV0D9rv+UxotFqkbTG5XEuuOuj/Z3DeEfj86Ot5yOO79Av22Ia7nmFhhNRpK2nGTqR4SP/nA5ThlBnS6ZNVSWCr76TVKfKyFADDalGmpFumkYy39Eg3buCWfOK9+0Gshw0BzppSOykOj6eoSOPYhEdaKXhgxAUu/utgrbaWqTyl2CFDnOXC3SJJ/ScFt1GEwScrHGE0UwFAenJSRGT97glg+lgsW5QMcIXOnFe/ENa7QdeMNPcZGVLYx1GlTTf2ioLHf0W7DMRbn3sxfebq/juRgkN9REaisdhSG2DfN5Vjm/nGlpvzJ8r7Sm8ixwdaKD2PKwuA5hlaiQEGKjRF/mWpYyb4skyOUIsjOefugljwNG0+Di33Ggxbl3QiEtUy2a+8vUKHaaN8IeuNRz+TEN0lBTl7QfMPozGE2Ak17Rzd9D9uJN9v/HibFmCS/Sm03x6+VUm2ippujL/sSEhX8g3Omk5H+ReSuE8JD3Wg73s3mmdX1c22endtJsjo17c75/A299JoL8T/eFhbr+ZMH8+p0G77ErX0+V7o1joNjs4vTeIoVYLVGHZrMc7HgFDM65/3s3ujEBGw853Of5DK6Y91qyAJt1mF4PrbfhOOTn5sJk3EtH+0StufHd1mNtO89brtpxCi26dHVeXmelIgHCi3oGuyozRaOLV1wxZikgqGq0J03ore9rM6Yu9HGD682mYW3A0aDeaMG2yYd+TYd36vITA5Owy+Y8uFAP2kU+xL/EqmrVv8G7XSkq22RP1N7QYd9hVi+ZoXzRhyqr7oOfVHhcrZ+J/PZiKoPytntV6E9bGHGkBc1FZhV4OEX0hHrhl32rOspKk9Abjmx9x578G8J3rwzNlwbU19UlqMB4YZrI+RHha3SqVmYZZ97Id08b05JW6dbux753PNqQ3mlhda8oOYC3VY97hwrzDxWliKPmSf6cQkyPcm55VrUwsEKhSacS0Cv6w3s6REw6syxyoaNjVy/HYNJvetKhmsspkLm2qKiVkJlPNVTl8OciqCZOBbuev6f2sDPafXpp//kLQGrG1pcyokhnXNTPIAR6Mhwn/2ETN646UrHCJZpYzTE6eyZPtrhASdacmMZ9Kv4Q8ESSIAdfLxe5waTCs1aO84427OW6zUldrpubF4izDmpS5sfdhlPDtEKHRINc/k3jr7fjcql9nwvQwccIqM463CwvoK1cZWV2WHF0llG+0YNnhyJJBcrLAworxInQqBzSrMZmNSOsc2Jecvn15yKyWLdW6GKwFefgBoYkwqzfW8MbB5oTBTKJu30W0f2tJUbS1GNt6ub33DNG7Y0wp8V31HEtp7n6sq0OHFmWNCVNCc9BW2XDsSnzzyzVoR/v4QbWF5o1mNlhexVyVy51Yg7S+mdPrm3GM9uHuCWPe+mQLYz5p/tNf//rXvz7tTnxnUBSUEm2edLKCbz8J4TvzOcdixDQFsnkJBN93HsWIPfeU35NE8Sx1t67UZgqzlHznrInfVuKuaGUY1mfuBOcnpsTQiGeYAwXlYX43UEEOkm5SgiyEYiEQCAQCgUAgEAiWzH9+2h0QCAQCgUAgEAgE336EYiEQCAQCgUAgEAiWjFAsBAKBQCAQCAQCwZIRioVAIBAIBAKBQCBYMkKxEAgEAoFAIBAIBEtGKBYCgUAgEAgEAoFgyQjFQiAQCAQCgUAgECwZoVgIBAKBQCAQCASCJSMUC4FAIBAIBAKBQLBkhGIhEAgEAoFAIBAIloxQLAQCgUAgEAgEAsGSEYqFQCAQCAQCgUAgWDJCsVDj0dPugEAgEAgEAsESELKM4CkgFIs0YkSvtLOmqhXf1GO6/nA3TdW1dI/HFncJOYinpb34/t330VRaStM1ecFfpYz24bkWJDKTpzvDThoaG3AOL/z6asTudNPa5SOc5zsfJ6ETpZSWNuG7n69VFF9bA01HAizPr85NbMKHp8eDZyhC8SNGIXTJg6cnQHQpXz7eTWlpKd3jS7mIYI6YgqLM/6f2PGOLnBYEgmeF8LkGmt7uI6QUaBgL0b1tO509AaJFCsDKZLTgPBgbcVJaXcv2/nBxF01DJnCogYZDRcztkwG6dzUsfi1/7CgEDlayZlsn/scizwgE6jz3tDvwbKHheUnLN7KX1j2r0f2uA+OKZb7+ym+Y+iqE/x8OUzV6HHPpAi/xlyjBa16++BsTxnNWdCmHlHEv3ttQs9OGUZvvIgqhS17GqMG2w4h60xjhm504e2D62n1cGzXql3oYJTgSRLtjgb9D9SvDeP7JjW8clAojH+3UFT7naRCbInwpiL/tLc5nHJKHnbRcKGJBq7Rz/qgZKW+jKFePtuK8CXCd2I3LdKzN+2CTHSR604lzyEFNm5kndhcfxVAezs7//ZwWba73p1DbzONplKDV5hiPzzCyfx+VLf7EXxZ6Jy5iXZX4c8pP+8+b8H4F0noHA5eWe+5ZAlnPovD9jykKc2fkGwdPlBiKHCUSmZ7vGyWU6fXo/laL5ju+GqY9k2VBbRzIREJB/EMGdh/Nf7Zy04v7ZgCp0s6Rgvc+RvhCE9ve+YIN54fpbcw1q8UYG/HAVwZMRkNxPyOzX/eDBLEVblhWwoPbQTwPr9J42VZwno2vz2raljaxZkcJ9PiJFNvRFy3Ya3N/a2zkJPv6ZdhlxlRe7EXzoITwDoyRW1/UzssekwE8N/L9Ej2WJ7k2CZ4o3/GpNIOYglJoZn25mTN7A2wPPWB6SkFZlb95yYqFLUiatQc4fjBI7bE+9h01c+eUOYdgn4MKG78+5WfN/lacrxi5uHX+1YxFAzi7oLexkGKREDzpZcsOY44mYwR6AKkD87onIcTFCJ/rxD0OVLt4d8FKhUzgUAueu7mOG7Cfc2HOL8kXx0SIq0DzWgMLvjOPprk3GkFe5yigVED0ipP2m2Dc48DwmRv35m18/dtejmcsJsqXQcLTZRjW63OOpdyLGug32zGjshBMjQEwdtmD53bGSaUqSunnHipec8//fXCYmQM5xlehtpnHVdBVW9hk3c2BX5qQvtUzWYxgf1ypAJBH3XQObOKTvYsTjJadrGdh5nToI2wVuU4I4amoZe6MfOPgSSCH8P7m+d20IwAAIABJREFUJJ7LASI5zdAS+rYzDHctcD7+1pDxTJYFB8MzHaQ/2ShTQ0BVGfl1zzDeM17AwpEWUxHzqAbDDjtbuhvwtLRi0A9jr1Jpptzieg9QZcWkdnyRqCtlBur2GfEc8nHtzqs0V6r8ihLt3H2Ir8/+7DZYEmu2zESXs+hnZDhqwp7r4MMg7r0eZEAX9tDU6CnyqgB1uK41kzX7PIwS6HIyVmlidVnGsel7BO/WzMsef57A2eVGV22i/IfpTWejQUJfPWGjl+CJ8q1ejhdKusWwEBGa1hd+GR0fz9BRnfpJEVaHb3QYAMOPInh7crfUrrNhq85e5nQ738X12wDOM9cI1XdgfAxyv3LThwcwvF6H6QnoFbFxD51HQoAR1wl79qRWBMr9IMGRXEe12JbJ3zQcuo6MhRqDNmuXSKp1MVib5+RJLw3GdlZLBdSKSS//uNcP1S6Ov2fHMGNEu6OB7l/8jFj/7zldPz8lR4YaaDimtsjPk3tRA8c6O+bnpgiMBNIP/CW+fx4JB5idnP94+o9BIuvyKKVPiOi4n75xP329Ni7+7jSW5bDKPRU0lPxQghTni3Lp+afXnYIEaD/oxVSElfaxEFOIhAIEhu6hf9uRx1gQI3Kpk+1t3iJcAmUiU+ruad8NJKq6XLjSPntA+Fo3vgkzzV2mnM8yOuqk7yaYd7kyLN/6bOOIPM09AKM+79hQhr2cHQfj4beoSxrvHsmErni5V9WBTU0pWGHC8S8dBDd34zzQTc3vOjDe7aZUzQAx4eSVUmeeHsTJXr/VKKyUuTdXqh63nL/LxcbUu5S+Uylfa6KyJeOk+l7u9ltzG57u+2iqaoWcc0QU34EWPDKAhKYkT8dTiAv8gLQhb7ua/eczflOO3wHY3INZ9zd0opTaY8X1SfDt5HulWMQx0dH/FhtSXZCmQtyiig3lRb6BABEfDW97VQ4Ub3UIHwvlPW45vwVb8qVM223RYfn1MOZVespmE5+XLKedLcr1AS9gpnnzE7CaPgxx4oCbEGA8ejzbEjUTIfwfegxF7TZkC9jLO5GFCV4OQ72dDasgdrvYXaIEf5YJAlbtD3K3eRiie287AcycPpdQskpNOC4Nwo4Gunf9DDKUi0JIjReZaUz5YMpH62ut+ModmCqBFc0MXmtOP2k8vminLw4yvl2VtBb9zcuDNGclm2VqJJQuKH7lpWmPnk8+XpxC+ixg3DtE71/ceCcUdBsduBqXY2vtMXKzHecVU9qO6ZNAvtHO3+/0JlQwC737c7WMETpRT63KHCulWlyn7xG8+7gjpZ4FdJjb7JjTPpPxfdb9/7d3/jFtneme/+zerMwoo+sIVodRroQVRjVJtbhNb4wSXZxhNLhBihm4gxOilE2mIYGbcQgNJUxSF24G4qaXENoEPFlIzSzU002CMxcujkTrjJrFkRrhaKYxUrO4WlojTVUfTVZYalSsycj7h3/g30Agado5Hwkh2+ccH7/nnPd9n/d5nu+DbaqIXQ2GtIsSrkDIsCiqNmBYbBLu8+IBNIXpvafgxvqWBVEw0H8oxuvrv8twhwmLSkhrtMq2NtPZfIOyLhOmoVJGdhTSfipiLnlxnrLgILOhFIsyGyCA+PEk018B+Jn2A0wzecuJHJDnF6AbHYm2j//+PPKcNHOFr/z4s+TIwzMref5j8H+Js0wCRSk/9OI4UU/9VdBWaLk76kCuGeJKszqjV8h/08T+w05AjfHdb28/KvF08DdoWMgpUGvQRFZJHrjo7jDRfUfNut+PY3h+iYfJymwUQBOXZ46kefgXwdVLfnV33FuLeVt0/fc4C8Ak5w5XYo1c2YfhFaS36qh8b2F73yfAtjQHm7JjuQHsraE8bbjDauHF1ryP7ikQdvfRlxT+4cX2egX1V7+H9s3/yeChRwg/iuLGUtXGWIYt5r2Q2IaqQ/20l4UnelNObFOg+4Wa+DXmpcUw+z65C0DeWhl+fyg0KT6cLtQepjsC+v5/iw83ydFgvHQZ/6E9WA6UMZ8x1jgDD1x0H6rHhp6+S02o1/jxp4qSmvsagK/nYj+fY/4hwDxzfj+ypPN/PMSvkgUQb3Sxr7qb6FN4p5cbdwyoFl19fEpZq0R/ahD9N30ey8B+uA3b1kH0T9JTND+3JMEE77Wj7IszKgQ0hztoP6ZHlZjXFvDjnXJw7eYyFpYkYojpV7+axQ0I/Y1UjsZsEpNT5r16jrY7oOs/giY29yZHi+GkFsuxRtquvZi0Kh5ChvpoO53fz0IfHisMDWFzacqMDVCdeo3OhvA48sCP/yFkyeUZxg0/ExcqqY89X7rZfzM0Boe8DhqUBHB1VVNnyaXj/b4U930A56nn2W9/jvbeQQxbH4+r3+ueRETguR8mtk/IqNhzyYX65DiDzSrcXRWUnSmj4usRrrRqko29hyLO3qPUdTgQBQ3G64M0bfn25a9JPF38DRoWsUQmcUBxAQGnGbNz8b1CMemL8T3WyeWPFq+7Lnk1W9BdYGbmQvp9suQwpaX9VLIpoy1NfGcO931nmnCtAM5rvbgBFLmPOd44gKurnvqrIgh6zrbqk1aZxNE3aA1/rt+xEqMi9H3+m04Wv8QinltitH0WEtMDOEdCbZP3d4nXSGTs2KaEwSk93dX5REzHBXe8F9vhMuqviqhPjnMhldGQp6XzUh/+HfXYXu9GX3KedUv7yjCRe16N8f0L6PNAvJbZaI091wUa2Xa9MeH8nxQyhFIjnadu8ONTkUR5kbszXtiS3GaxBt8jGUGxycsxMdMZCU9oHvk7l0rs92ScPEUI4I+4Ph8pqVpAEEREEcBO6xlbkojEsolLDl+FxPz7Dsyv22IMEAH9xXH60nlXZHIUW/SL3sOrkpC+2PV6lPsmZp8l35+Pifn7XkBgXdR4C3sY5eFk6PsOzP9qh9LzKb1yiupXMQ44ML3ehaMkjbjJWg21DYlv+nEM9eJGy/kYL7vrYj5lZxKEEpKQs/3oCCMHQseZeGs/3TQxeGx72GMRGQVlqHfXsN1Sn1LcJXDTRF2PiLBbj26VjIqoGMh6FVplLr4pK8PXPLClndLYRdAHHqzNFTSGx46Ih0LdfIXxNfvZ11HJ1jsGzva0R0NGxTtWejtMmG+JCMUGBmM+y4S9bhM5KcKeQJf0jmlHzirn9Uh8G/ibMixCk/NI1FDEZRgefm5ZMd1a2nGM2wxonzcwM1NL1pNSO5GlHjACD0AWOYctNYu7qkN7IWq2U0NBsuEwM4y558mEBnivRlYV1RjfvYAuseOftdF6woaIgP70a6uwMqqm6f59mjJsEQqbSjMQ3Xdgeztd28QMTvNe3J9lodiQi3wJi6C5G4gbGITdffRlcl3n6bnwH6D1l6PNgcV8ZwtEDDnQ9/dFV6bSGq1hz1nTlRmOROMkfIw1bKOR83zUU04uPLlnIIEfrM8DFhS47LMiRKe4ATzXzZw7cwlbXKiLAm3Da7Qf06OMu/lddOfExFFX9HFvQIu35yj1p+wxoVcKtCfP09ecYvUPQnLQJxppG40J1hI0GLrOU5tq+8hu1/bHGXdxxtqd+DhyXf89Bku8mI/Xx3/PBi3Grj6aSlKdmR/3e220dVhxRptDQFnVTN9bKm7kJf72dDHeRTSfVNB1LJQYKl5t5Y2y7fRVPELo1n0XljfPYR6Il0UWNuk58mYHhuKFY6YOZ7RTX5gTDstbeGa9181YYi650NDPhUcM2RJvWem9YsX+nispT0MorsH4q3Zqnk9o71TXq/RLrKfaMA05FwyeDTo6f9NPbaEM/G4sx+vpuuZZ+FzQYHjrPO1plH/8ty2Y3jJjuRHXeiirjtB52oDmiUXTqai9NkItfhzH89nzWQ0XRo3h0KHwcyXLIuR9PopFVNP+eijUKdZYC4gepn3zCMVKuGjhjd/sYvsiITxRZsawDIgIB2ofwcsuQ3heE77fRXwDAAUUFWuSn4E8PR1vOpg4MYl7FtSbwu/fd9B62Iy4xch4VyZDexaHxYwvvBo098kskH5gE/7rOpw3nUBkQUyBem87Q6fiw5XEm2a6r4KmdZzBV2JFNeSoXxlh/Jk2GpvN7N9sR3ugCuX9a5hHvYAC3alxLjSkU4dMRtM8yKua+K39znPs7yKpbkbN2RH06314/5qLIryL51olLUNL/DKJbyVPqWERwP9AtvoShZHJeXQSB4oNAt7PFBjfH83gAlxwMSr2DlK1BUD2ZCUvRQemE2YCewdpLw0/oX4Hrfl7cJ3+cJkKMrEdaSx+HBdNOBLf/dSJ25f6SH6PP/x/Euet1F2TPL8I1fr4tvJeq6fssA0RNbW/7UvR9l5sZ1qxiSDsPkvHo4T8rDLe61ZSZdWEWGjTwK0J6k508+LQDOdLl9Zdu9+uDxkVgoYXf+jD3rOIcMAzOgxly7v/Are7aDnjQjhwmc7Y9kxjtEY8Z99bJ0ce/RkBstYAZD26R26V+Pqv8a810YR4P86OairfTmVyeXH01OOwOxdJ+PYz0VVNfVKMvhfHmUqq137IeMIzF5gys393G45E21N0Yt73c7wVq9Ra/gm699aHPK2xfObAVFWN7GaiYo4Xe8M/s/+9xKmxiOdaC9V/p19GyOYs85v76W8YprJHBERsJ1opV/clLwxkIPCplaM/bcSWwk4X79loq5jA0TrElVeWOLGM4sU5GuuTVHGkaimqQ6lwYa1oJN2TKN6y0viTacSMYweh67U71fWy07K7lbz3dzF1qCz5c9GJ+aV61v1+lKbnY48fwDN0lIpjthRhYSKea21UOh0Y373yhMNavEzZgZ0FC2NLJJn7h3D32D+HF/JE2kpyWCy12n2ml7G9g+jXJwuixAubRMYtFe37VlvVK5UYSy67qgqYv2HGfCP0ju92LxYRNGUwOWBmMrptoqzql7jvOPBFZl6+L8lkWLClifv3My2FhRB2nudDl5esfEXKe12xtQZDrQfnGQeOge7wGK/GMNDJq2WqpbVZznZeHR2BFOM5ahUzvwDf9f3kNEDfH/vDC68Bxn5RR6OzAMPpTl6tUqLZPIP+VNZ3VH1NAp46w8KPK2aFUNikp/nihdCKzmoxa6fl0H4sdxTU9P8758tEun9WhmlHBV8O9dG5M2ECKzowHTpK9y3QNI8weDLNSuXjRlgHo06GVV7aS8MTGr8fH6Bc/4MVJShHlCsCdyy8MZA8VIVUhzIfw9m1H2dX5uNH8F6NGBUC+v5k+dTQNm2hQaiwiaEu3aLSrMsh8IUT63XQH1rGtXzgxHLGAYKAIGby6ASYvNGNiB61kmgeRToi4Q6qQ+0Y/+ynqszDCxWLq5noLurSSw2mxI355W7cKNGtjVcjW57c7BzuGeCx594shhfntdjwLYHtz4buI+9QfYxRIaA5bMRQpiDL78F2oQXrHeAzK8d7dGjOppmIjLZQPyqgrDJQUwjuK8Nxng/XhTGcB1QLimkBN+bmeKNC2KRnV7UK2ayTawMO7EsMk1sM+/F67IISfUMNKtxYr9hiZFRd9I44OVi4MJkWR9/geJxRoUB7oApNXiD0u67aWKpWHrgJBGRoGi5Qe2VPyDMg2jj+lj59WybywIkp1qjYoKP9VwdRyefxfWih9W0HIiLOjlbe+UnISJLJNWhKSEi2FlAWF5C7JvSb5GuAwCyeOGW4UooSxCAy5kKlCHESNmkpr9aj3ZxLFjDvm8Dyenf4Wrswnc1cxyD2euU9CN0L0ashWtiz2QIIaPbVoJXPJl1P028nqH1+oW0DN01xRoWiop32Ayrk8z4mftNK97gIohOT8R1Kn6SgwRce7oogvBCjCPXVHD5Al1eIUlDCkHdBgjQc3gNyFJsVod8nz0OVtw7f9aNsa7DTanFS3pqVJIgSJ2wyZeXcgAhVRrR58fli4TQx5v1+/CkWKhcPH1yeBKxzyJQQapsoq1rEqxcXUYV6uJC/lpn4sEF5fuwdGMA/O43zlg3HoB3rnfAdt0FLbb2OAo8d84AD84EfY0ZAWfwi2lI1RZtVFBYq+EGqMDyZgKo4zUgskyOX+Zn8ox0K21HmyYi0rL7/Noqeo9TXVeBfe5vzZd/sgpTE4+epMizcF6spO7WwQijes9GyG3J/v7zVsHQEpsxUl7ThFDQ0XRvEWCIHFDT97kPkDT+nZd8L3Kho5/ybBjR/58bW8wZv9DjwChoMQ+dpTzQ6nigKntsN3X/w4EUV6qi+mMaOgFEhoHx2hJGtKXa7Z6PyhBXd6cscLEwdlyPPl4cmRkYTbtS0n9bQ9vpCVL3w39ppP5X6rOY+sdF91Y1qdxP6Z1NH+8sV0dkX7ov7qX7dETIqLqZOPg7c6ab+sB1QY+xqXmahMBNlOZmGAZGx1ytpGVXh3zy+5BU995AJs6jC2F/L3brG9BvODGPuAbDRuNVGhi2BmJCXtRqaTgN3YhMGU3TiH3ez6ScmSMrxWIxAONPcg72nLW4iuWy5WR9P3rB4MIffD75Pp/H5PNj6u7DGhi6WGkOexPsOzGcWfof6ZKwiigZN3jzukjbcgDhgYeywNm09Bl3POIN7w/dnQy2a6hdoDK9QIt7A7TFGtfL9NyxxK87CgUFun9WFB1ADzdXdVOwwLSNsLRM6zr8/SE14odOwT8MedWPU0yj+3s10qyY8oXQz/FbsyrY63jvbUIs2nNezLHK0GN+qZewlSygkauAopp/cprNs8SlD6FkKvxD09P0uJhG2uIgsMZ/970GskaQ6NMLIocSQsfhJGgBf+OJDlioKEib8i+RCxdXckKO+cg9DqZAwydNQlCWSvy/sv7zhwDVbgyLdwrOgpy+a7GvgUEkLP9pnic8BiRFiMBzQsn9z/cIzap/Ce1YbvZ7vnDFH9xV29/HvMTkums1ZiMr9Ic/qnV7Gbh1EVfxlGgn08CIBkwz3xK6yx+MN37Qp69nErMgHPG7sgOH5guingVkPTqApT4FiyyAz1bIl5YDIqw7S1GHHeseF+0HTQgjrnWR5WdEzGXqurjWy7VqqHtdOY7E9RV+8SO7FwwDej2XUpAyfFXFd96LYoV79GjrXF/LXMhINWQzg93+Jd2oK9x8ncd2cxBmrnLdBTU1DE7qXytn+TGS6X0PtaRGXfZjh31kZG7divmVN8M4JKEtqaO83ov0sjaxvStJL/Xpfyo/z+qcd5yS+1TxFhoWbGxdSDLuijeGPOtCtws0nKzRw/rdyPC/UxGufr1VRO/Ahmvfa2N/QRuXowkOhPtTH5ZOJ8dhLYbEJ7nIRyFOp4PVpIpHk4p88QBF5AsjXa9A8k7yXd+YcoKN8Z6bqmwHcb4eK06lbOzmovhHnplaUGTCkqc0gXpuk+6qbvNJDGDJeo9jwlLC3KFV4U1R6VojLA1g6yVKDER32EALlvzBiHjVh+vUYNZn0wqN4cI2EQohqt/k5mna7AM4hEw7UNPUb2R6WtAzFlKaQOSacX7EcHpIi/GEpJOeX+MdbyH/JEnrx/FLlZsPSjKnycx4j9mPbsKeTFhX09J0NrRj7XY6Y+HodB/cmhNIUFlFOJDPDgXNKpCY/xR0gGDmyN/YuUqCp0sGNyHTPTSBa9MDP5M3Y4bKGsyd0ce0j29JEx8lLlJ1Zef6ScPJI1KgAIF+Dfic4rodfTwUW6jGEVcwiqE51JjxTCvTHjdiuNiaFQC6GvMzIhQNj7BkIhbdYjp2jXNMer/SThBvnlYV+Xqg9mJA7JaeoRAfvhdpZfM8VYyQ9aZRoEoUvAn7883N45wXURPKb7MyKpI1oSfyNQmk5u7AsTOIKj2CI7QvztlNewYKHSyT+ekYNWIFDtQnx/DlFaCrAOhra0XpnGmNxYJFVdweWU4tffcdAW4p7ZGFFfvqeE9ChUi7cX5H3CtYDa2RRGdZFkWk48vt7GNcv3jvLFKlFSyDS96vQv6JHlbTuJUeReK8Gwqp3rlZ+lFuPiIGRL1QICcNQ4I6Vln0mvnxlhI9bHzXULg0lTQwe+wGOihas+zoZqVLGf+6bwFTXjfdZRWjseuCmt6KM7shzLijRVNRSu1OLRr0dVZ4sXD8pnz2xhrNMQF1lQF1loDPgx+txMzU1wcQNF253qKaFam9NOIFex8hohrpFX7kwv2TCIejpbJLTdcLCut3ttL+kIlOa4WOR45X4xnmKDIvAo86YloWiLNZlHcAvevG4Jhkbj0nQE5Qo13rwfAauS29wVJxEU7qd7UolBc/kIluK8kahnqYq1TIVe8LMOmkbSO7CCzZpABfTM6DOB+9ndhCMKNN6c/x4ppxh12SmL5QhF9bBFiMdh1TI7t3ItPEjEMDVVUbl2x4QNDRdjHiLElmQnlWfHEpQRfLj98fG+qcjWZM9osMeQbalBkOFifrRVi7dKsdYvNjFVFJeZ0Su1iLHlv5XfmzG1CMiHLjAkaqFMKus26FjFJVo0KxSP6rIWeaB/F6cN5ywrSYqtTwnegAdeeuJV5aJkFJuFmQbVKGJ3kPie5BsAQ0sQXUrGV3eoy0cKCra6TtrQB022Lz/J1ZMeIp3GioT8mLmmY19la5o4ra8pNAWRf5zkDJoKBxbHmGnhsIUajaKDUVp9l8eRRuSzgyFCrievK04445Jb4dSdYopen4BRbBswwLkaI+dRW/fHwprEs3UndXy8akMUwlxFneMocOIicrEVXDfdMz2rKxo3ehsKKw29qzXh8OqICTHfcuTfuh5KOIaHWb4ugPnR84MlbvTk3S9ZFnx40J+LvGlzgQUzwIpvCqJ13O4o5KJhFHc90nM9g8DgBrDzEwK8YBJevP30L2INPrkhXz2vE2CiEOESKy8iMflhpJa1NHxKPxeoT48/sTWi1gceX7RkgxKeQbRklDfn4e21pDeMxEQcV7rxXbFwQcx98K6slqO/KycgqQdvAyfNeEWarn8i1U2KgDkBRQVb4fdLVj9cgoSksj942O4AMOWcOusVXOka5Dn5vMoLCxAkWpyEq6fpEvqO8LI5CgKNSgKNegiKogPAwTWhI+Vo0RTrEzeLyDislvpPRNeULvYSW1JFqoHHvZ1tPHLQDvnTx9Ek5iTIfGd5ikyLJQUHhAgKcZf4DnFyr0VgVk3k7N+/LNuvB4Pjj9Oxg8oghLtgXZeq9ZR/rwC2ZoA4pSDD645sNotdI9aUkhuAqhouj6OMUZe7muAfC2HGpayGp6Cj7NwzMwnrabI8pRoMOOZDUC+H9//BUqUoUEpXI0z9bQlvWsyEoqj2GFgpFCzzLCjpSJD3XyZvjkLWXXpJO1ipGe3GOk4HLPSLDpoO3QU8/whPvyPJlQr7qMEyg800TraTXfPMDXFi1cQFqqaQjUGvki/zfxDGbkbtNQcjo019zPnA/gB61bBqPDOhOpgrPv+Mhth1k5bXRvq35ajWS8nanSGDVNXV37aHJ3UcrMpZGazVpCQt0hoV2KoXdZ6Jept25OSCAMPY/sPL66bi9dcXjkJiyJrYLmBao+Nh/HZBN9b7R5/vY6ON/VMHAiFW4k9bXSVdbKuEJhKsf3D+bj8BvGeE/Heap6PkucEsEevxwTTM02oo+FuAtrTIwty4Zn6zVk7jT/bj/WzxA8UqItleDMZJI+LuOsZL4udCVnKXIJ14fs0szR6RP08XsQhgcA07lFgZ4DAA2At8MUEY6MgnIwYCKnqRaTniYXJyLy4GsxYAUWpHq3PhiO/g9EBPQIuunPSSaZa2KO0ZD52ksLaUlWhBAo1WmgYY+ILfYxR5Md53QIY0G6Lya/YokN334NzajJu4SS61+1woNsXd3HeWkSq8PsFFD0vIFsjS7pnAn4/X86GPRvX7YyNh54BRYWRy79rQhv+KepXRvjfW8wcf6WNysI2FKW1VFVsZ3thIaq8dU+k9pHEN8dTdGnlaBsuUOvegyXG1atpHVqihGpmpq+3UPl6jAt+k4aiAzq2by1CrS6iIC+x45UhFOqoKdRRc+o8Ab+I99NpPJ6wYTLlZd7rxKtrpzlWs/qLUOVR8lZQAyJVWArAPyhQAe7ZLwE/npsg1OfFGS9RKbj7E5w70A0JrxVnR9ArSa4cnqNBk0ozfNVQoD/dnvbTaEGrLbVcvhSvD45QhEYJ5gETLT0aRpcqQZgBWXENxtJuGm+YsU/VJFf7XjZ+fPMqDr6tgi+cOL9YeH9yBsCL+5YzZdJoKtUsAAIibtc05KlQyCEwO8Yb/2oHailMEfaWkUIN+kJou+7EWKZDjie0yl6tpgCQHZ5h5lDCPinlZhdIkpldKyc39vVH03hRpzTaIgZShMU8MIuH2qVi8Qq8C/k/j59EFaunia9XsK9Q0cHZ3RPsvyoCbrpP9KJbYl+SKTcrhHKZizMFqKuBnshrJ5bfudi17D7Di/V4jFGxpZa+rma0SiHkrc64kPOkSBfiE8MzGVovMM8cQEWyd27ZyIqoeUvP8LEWtv1smsFLnRTesmFHoGlrot9hkeKxKQrEpiXgx5+hKuliyduhBGgFmqERPtqqQZkjYjtgi/HeCRSeaic6coWjCYQyA0e25sYf6v4k1h47ntJa2ovDLZqTqNK0dFUoxVYdWhqx3fCi3xc+3swY1vdAeEVLUeIN/ZmdyorM4df2U3sWv2cTjaH7DtrqzmG/6UqQhdZSfupVdlWVo04xfgnFBgZv1+C5aeOd37yDtSHF4mxGaWuJbytPkWFBqPjX9RkOfuzGNw9ZuSrUz6xO7IhqXx/jhSJypZJceRaBewsuWf+sm8lUZn4K5HkqNCUHMaRz7YmzTAKq3KUUq1omsjyUJWCemSUg+pkWoXxj/JAgVxahKRbgCx/vACS8Vqg0aLawhMrhTw7veAv1dTZEQU/fpc7oqscCcrQnLlBr34PlTCvmkkXkHZeEgvLXRyjq1zxC/kwqPNgrKjPEMVtpqUgtVpt2ZU7m5UbSMQW0PQfRLvucVejqtLQ1WBk7pqPm/zm5JELt1nDRwbUpVixTys1mQK5EVQJEVHluWtMYbYmKTvFx2SsJMOvMAAAS90lEQVRBEGKDseZR7TSkTc5ePQSE2N896mY6oE+Iy/Yz5Xzy01DZ2vjJz8QnXpoSiwhOTbKy4EcB3ckO9DfrQyFRU/b0k5ec3LhJrDt3O+MNjxpO4mc+aVIpo6i0CaGnO+pNcJ9pxVx8haaty3hoxCmcMY3S9KtO9LH38ez0N2JUyHPiWo9czTiGkkd8dv7kDYVVrWQRLIoM5b4+xgU59S9Z2L/DjTrXBYXtlCeFmi5SPDZFgdh0iPbMxT1DpEveJjqxVe9MN7VVoG2IFMT1YjvcC4KejjPtSXWVvENO2hBoaujAkDa8dgmqUBHyy6nZ28j+M2YcOzvR5kRkdbWcfynFMxOurZWMB+veMtpu1zJ4z7igZJfIF2McLW7E/owifqKfo0VfZsGNGm5moW7QolErUYSLNM3PTOKcAZBToA7no9z34LwX1qjPUlJ+uJPyQ/P4Pp3E/QcX5qtZ6PbK2F4nGRXfRZ4uwwJgjRzlFg0povlWxloF6sgqAiK2ZbhkE8nkovV67iIC5eliGVfEOgqqzjP4bAH4hvGgQv8P3+7kp8CdbupfsuAKF8lLWwQvR0vzm3rGDtgwGc1oEqqePgrywtWUDk4Tx/ypleodbbhQYvjtKK9uS9GrZ6U7CxU1vx9BHROTHPVuBAIgW96EQrGjllphD6aLNrLWXkKkFu02OXxsobJjLHmHsCqU1VjJxPdTH7O8dYTaaAVYBZoqLUTVpVy0vbwf3m7n4FYFsjUQmHVhPVtPS+xMdu8utKug+gag2KxFhTMch+7EcsVJeUqJaD/i/SyEnNUwaBQUbBPgZmQqa8bUUx7nWfPf6uXce6vwVctEripChyU6CXaeeQNbSYwK00Mvtl/3xsXtPxJ5el477WCiLlVthRhkKjQHwDwQft3zDsMHNPHJ6BFEEb8gZHhGnbju+alJSACVFR/i7G5r2IMC4MK088fcPfVvGPduRxlzzf2zPlIKQieEbAXmAxC9ml5sg+kr2jxOZJs11GImEoBjHhqmtrgGRYqRXBT9CEL61vPfc+EENPl5q7YIpijr5Mr1H7D/ZRPOKVCeXFqexKMi3/YqI6MH036eSTgDgO8vXYQiIoGuPFlDeeL9OmvjjTMOqOjj0KI5e0tFjq6uHfV7bbzRv4vnto1xdEBE3foau1ItlqxJXVsrcMeJ7TYIr5SjFTIseD4Ih0j9l+SPVIcuM3IoXOywx5km0zBGZWtR74mRIz1NZEgHl/gW8/QZFk+URVyyiYQt+vT48bjsgI6iZx/HhF+Oem9N6JvGvbhRY/irC/t70+SmkZJ9mgnc6ab6v5twpS2SF49Q8Roduyeov2qi9WK6kKjkkCPPn1b5xNOQHMfsx3GlFxcKFBs8mN+yov/xcnJE0hUyFLG/som2/9dO34ABdfN97jcv4XA5WgwntViO1VMPqE7uYrsc+Ps8tCXa5O1nnTjveFGq0iuK5f19/GtFhQFDh2NBTvQzO20V9gzFsNQYa1exqFXhLl7d3RudVLq7Ktl6u4aaai3b8+Qw78PjmsRxzYLs5OrFcKt3HEF9pi0qJ+s6U8Y2Vy1VxQoCU1aGr30D8fgA67XUHBCwR3LXRBv1O9w4qmtQybw4r1lwJOUQPBqKqtfouG5bZMFGzvaXjKgHTFFFpcbNL+BoMFBerCQ3K+xBvmll+Nouhu7HTz6Ef4hfcrI2lzHvqiHvgY/njrWHZckFdF1DGGdii855Q2EgaWSzk0gI6zM315H7q4OoZD5c772BafQbuZog305NqxpLR/hOG23kBbcDQ305mk25ZOHH+8dJnFeGsVUOxUjnJuJlbMgKqNBuXt1FMPn6POTh5vGc2ceetVcYPKxafQ8+IFuviopRpCIknCGnQK3JuN1SWLdpF8YqD5fOVLL+spba+loO/kyLco2L7kP12NDTdyr9Crz3MztgIHc5IceFB+lotlHWVcYmgC1Ghg4toy0fuBZk5CsX8QyGhSxUazMfPdXCajrPS1IeHqStueW/baX3Qz/P6Q+ie0ZK9v428zduWCzikk3kwSKTd/8kjgGgRIs6owrT8okkTXk8HiZvT+D6aBIQqf+JBdDRd718db/wMeO/3R1a1RLTF8lLRoH+ZAdjV+uxn2nFXJpYkRYyhRw9DoSqQe5XpfokgGeohaMDIkLDCB9Wuqj+iYmWTjVXWlfqKfmaORG8nwSQLdNro9j7KsZfOzB9Cnnrw/r8+VoMDSkMizsB2gYcFFUblp7ntFaD8Wo7nlQVqJMIG5RJ13AlJE8qxVtWum9Zk+J7dav4rRQepOPkGGUxlbq9Nyx0Rzwzgh7jvnlMXU86gEaOtqEDvb1+oSCd6MHW0xZddVSfNKI6Y4qugpPzqGGcCvSn+hgbzZx7IHu+ib7+acqi3g0v9p4W7D0Zdoqw+UWMhd2YIonh4d8COvpi5YjXqmm6+iHyYz+nZXTpCfxCRAVHvp3yBgFLT7jRPrPTti/yqwRqD9RgGfgmvBYyVK/00TcdU3vkMzvmE/bkCuGV6Y/ivfYGphtAhYFdK84vi+FBaJJtR0v7kA53cyO2139MxYNxrjSv1IAJ4HGHcrP8/jl4wkE08kIdTf06mk67sA318saJPVhOCAiCiCiqaLqeweOOGBJbKcxdUh2PBWSoK2tQd7XgAnT7q5bhqQ+pLJrugPpkBwcXu87iLHZAJ/xgkQ0fA34Hpp2NoT7ojpw/XFtcUEXi6eU/f9Mn8F1CvGHFAmirMieMLp8Ak2/l80JJJXvqWugemGI+90UMb/Zx+f2PuDc7mKFDe8oIiDh79vPjnSacIigPGKnJncV5y4njmgVzjzn6Zzq+n8qqyoW/4k3kRAtHuTD90ow7SYuyhs7REUZi/jr3LeP8/rIKv/GhiONMdag67hYjQ8c1yJ830HFSjevtSqpP2PA8WOQYf82QTuv34L4J6AqXfZ95f9eL6VMQBAF7wwu8cKAb2x1xZZKeCcgKDVy+9SHn4yrOxqJAvbedkXvjSzQol8laNU2/+4jBk3qUKeceCtR7jdRsXk2vogx18ygf9RvQJHynUGxg8P0+alY9vnOJ5OnpuzVOe0WyTK3uzQ+50qyJlzvNXffohm+envaLi5tsiqo+bl/vpLY09fUXNmmpfTNFSKxMjeFSH4akCsBZZCUuk8lV1A78gXvv92GsypAEHlYE7Hv/Hh+/EgnckaE5Pkrf4QSPoaDBMDROZ/U3WyxVf/E242/Wok1ZB0dAWVZLZ0mqGy6AZ6g+bNRpOf/6Ksa4P3BjrtuH6Y6Avv/fMOysCRUGFMB12RojaPE1c34//nR/c6n6Pj+ut6upOG5HEAScx4/Scv1JKL6lQFBTvvcgtbtVgIgoArjpPrKftvdciKk608A0k1eBElUK+dr0+D82s+dnLbgEJcoNYG8oY8/bTsR0MtkRRCfdL4WMT2F3H31LEC8QvSGjbdlS5quBXEFBePFKeCb30WT6JZ4egn+T+ILDL2cHs7OPBt9xTgQnlvo3cjpYkZ0d3GfzJR/yq8ng6R+Fjjn259U/4znXcHDYMRmc9s0F51Nt8Kfh4L7Yc0vz+pwrvL3rXDA79nUs4c+yz04uel4+275gdro2SfU77EdDx36Ev43/VBGs+Fnob8c/ht7b8eu7kTMJX9NzwcSznjybHczO3hcc/lPMm/NzQZ9vLjg3t/Dnc78brNuYHczOPh78YC7ND0hs11jmfcHJ37YGq8PntnFvb/DuV7EbfB4cO7I59Hv+cV/wnG0y6Eu8mL6xYF12djD7xdPBMY8v7vzm5uaCn7s/CL77yx3B7Ozs4FH7XDAYnA/O/Xnh8/m/zAfn3O8E92Unt8Xntrrgxuzs4MZ/GQ5+Pu8LfnC2Org50r4btwYrXj4ePH2hN/iufanPxAfB4f7e4PAfU96RkUYJzs35gtOuu8HPI+eYYevVZz7cbhPByXB7Pvbv/8t8cG7u8+Bd9+fBubkn+2sX5au5oM9zN9SP/CX8nnc4fL+E/ioGP3/i5zTnmw5OOsP3yFeL7xIMBoPzc77gtCvUJy6pmf8Suhd8nsnghGs66JubW9r1SdVmTxHzkd/k/jzcB6TZcG46+G6k/8neETz3UbpOLp5Q/5lmrIjw54ng6Z9uDGZnbwzWDU7HP2PeieCkNxhc6KOX9rfQxy70m6G+6/Pg8L9sDL3+6dFgr+2D4F3vXFJfOf+XYOjaeT8P+v6c/PlcbH8UabO5D4KtG7OD2S8PB+N7+PngnPducOy3rcGjL0bacGOwwjgcnP7zXPBzR2+w7p82ht/fHKxufic48aeFVph3ng5ujPbZC3w+WBEzNk0Gz2WHv/svvuDEW9XBjdnZweyNdcF3PfMxbRwaP3qdvuS+bN4XnLhQF9y6MTw+/vKDYPzTPB+ci457C3vPuYeDx3+UYpyMI3x+af9i9o3MIdL+JY/TkefzKesxJR6Bv/FQqEcLm0lejwvgvtRK9xSoTkYqVa4u8i36UB2FpbJWgfZUO0TkNNfIUZRowNHGC0Y3slknIDzxYDj5zlraC52M5eSRm6+mKG8dIEexWRFeJZWTV6iIrlhkpdRfh8BtE2U7u3G9bsG++zy6HBmK0nbaNyevTCorRhjZKqcg9rrIPFzaVJayPoPQUB7KPVgq9+y0/bo3psCiBkN/J69WKRNWfhXoej5k/If17OuwY6qzYwJ0F+8xuDt81oKWgyfV2M50s39reslFYXcfTTtDR/f0r6esK8U2r6ijiZOegT1UHHcgbjEy3qVHIQNF82W0L3twvG/FPmjHOmrBuWxBgxoGPZnWwmTI5QLyLd+U9kcooVFeuNpexAyskSGXK1CtZojJarFWjvCMKu4ZcV9/JyZ0SWD7s094NX6tHPlaOepl3iIyuYByOfdVJLlVrl7eKn2KNnuakMnlCIv8Js/VRlr+1YpTBDbUcP5/dVKzanHsbsw7Kun+TED/1igX9inj++w8TUKSbg2do/r0Ai2JUuh8j/kH3lB+QaTvungbxbMtHP21lba6FYSklZ7nD1deZKphE/uvLrytCo8j4vUW6vqdSTWv9Cf7OLhPv3DPlhroKz1Ixy0rprNdWAdacAy0oGwd56NXBMb6uxGFWnRb5YijjVQMeMldM8/szZByVnyRWze9L9VjvgGKik4+fKsWlRxAg/HaOM+dauT4xXDu2qYmRt43UnTfydhVK+cstlARxw062kfPpvDsfcnY4RdovEkKBDSnXqV8kVyUVBLRc5/Y6L6avK32QHtSfl6oGnqKA6dJPpf49vE3blgYGb+/DGWCsHZ5MjIKil9ELRRhPLzyGgurglxNTUPMLxO0tF/Tguhg7o4b97Main5hjFH0eVKoMNz8A4YVHkW29QivnVpHVrUhXH9DjnqvIeW1lD+jQZNU90HJiz3trLsfejU368GfraRAqUFftcxEw02FKEUX3g2hhD7Dbi2KtIaJHPUrl7n9Uwe2ixbMszrad8d2/jLUzePMVLhw+1ILtCfKMCs2G9CUxOv6KLYdxHB4IVlPqdZQUKbhSr8BVWyMbo4S7d52tHvbOU8AfyZR+BgCoodp33yomNJjrX8isWI+tmH+s4qaEiXy2B7/oR/31TZ+HlPfh1IjVatQN0ji6UK5VUMuH6A53EHnST3KVS2EquLg/+gk4CulaefScuVUxYnGRgxJUugC5UcHkWfrYvIL5Kgb+vjo8AW89yaZ9c/ju+chTZeZFvm2chTI8b+gQRO2HOSFNRgPhJZkhM1FyG9Z+N4WHbUlWrbrXkRbKKQZH2QIxbWcL67FeMuCqceNdnfoV5a3nsd9UxVadCzUoVNacc1A4YF22usOJihnqag92cm63RpqExen1ijQnR5B85KNc6fOMf/yETRrAZ8X2xkbng1aDD2vcmS3GiHl7E5B0aF22kt8eG66w3UpFKhK1BSVvIiuMJN5KkNeokFTcQhDWULy9rgPl8hC/7JGjqZEg/YlQ9Icw53lwPPwMcjxSzw1/KdgMBj8pk/iu4LfH5As7u884cl3ljw+CS8QICBLrlQqIfGNc6ebnB0mQEBZXEBuePD3feIMrW5GUWP8fSpBBInvBI8gUb3qp+D3M09W5nHyYQD/gxR97DfFQ74VS7D++36yHll4QUJi9ZAMCwkJCYnvMlHDIgMbdHT+pp/aQmlaIiEhISHx6HwL7HAJCQkJiUdmg4bOAzrGPprEeS/WRaFAXVFK+c5d7KpIFzohISEhISGxdCSPhYSEhISEhISEhITEipHqWEhISEhISEhISEhIrBjJsJCQkJCQkJCQkJCQWDGSYSEhISEhISEhISEhsWIkw0JCQkJCQkJCQkJCYsVIhoWEhISEhISEhISExIqRDAsJCQkJCQkJCQkJiRUjGRYSEhISEhISEhISEitGMiwkJCQkJCQkJCQkJFaMZFhISEhISEhISEhISKwYybCQkJCQkJCQkJCQkFgxkmEhISEhISEhISEhIbFiJMNCQkJCQkJCQkJCQmLF/H/ahM0KgIl9KAAAAABJRU5ErkJggg==;" vertex="1" parent="6dMJGXCS0I9ftsZN87XB-1">
                    <mxGeometry x="-660" y="1950" width="790" height="113" as="geometry"/>
                </mxCell>
            </root>
        </mxGraphModel>
    </diagram>
    <diagram id="M4mm86qCMh2Fy3G9x0yy" name="第 2 页">
        <mxGraphModel dx="1005" dy="776" grid="1" gridSize="10" guides="1" tooltips="1" connect="1" arrows="1" fold="1" page="1" pageScale="1" pageWidth="827" pageHeight="1169" math="0" shadow="0">
            <root>
                <mxCell id="VSiHaWy5NMUxZUaE88dL-0"/>
                <mxCell id="VSiHaWy5NMUxZUaE88dL-1" parent="VSiHaWy5NMUxZUaE88dL-0"/>
                <mxCell id="VSiHaWy5NMUxZUaE88dL-3" value="UEngine" style="swimlane;fontStyle=1;align=center;verticalAlign=top;childLayout=stackLayout;horizontal=1;startSize=26;horizontalStack=0;resizeParent=1;resizeParentMax=0;resizeLast=0;collapsible=1;marginBottom=0;" vertex="1" parent="VSiHaWy5NMUxZUaE88dL-1">
                    <mxGeometry x="290" y="270" width="160" height="86" as="geometry"/>
                </mxCell>
                <mxCell id="VSiHaWy5NMUxZUaE88dL-4" value="+ field: type" style="text;strokeColor=none;fillColor=none;align=left;verticalAlign=top;spacingLeft=4;spacingRight=4;overflow=hidden;rotatable=0;points=[[0,0.5],[1,0.5]];portConstraint=eastwest;" vertex="1" parent="VSiHaWy5NMUxZUaE88dL-3">
                    <mxGeometry y="26" width="160" height="26" as="geometry"/>
                </mxCell>
                <mxCell id="VSiHaWy5NMUxZUaE88dL-5" value="" style="line;strokeWidth=1;fillColor=none;align=left;verticalAlign=middle;spacingTop=-1;spacingLeft=3;spacingRight=3;rotatable=0;labelPosition=right;points=[];portConstraint=eastwest;" vertex="1" parent="VSiHaWy5NMUxZUaE88dL-3">
                    <mxGeometry y="52" width="160" height="8" as="geometry"/>
                </mxCell>
                <mxCell id="VSiHaWy5NMUxZUaE88dL-6" value="+ method(type): type" style="text;strokeColor=none;fillColor=none;align=left;verticalAlign=top;spacingLeft=4;spacingRight=4;overflow=hidden;rotatable=0;points=[[0,0.5],[1,0.5]];portConstraint=eastwest;" vertex="1" parent="VSiHaWy5NMUxZUaE88dL-3">
                    <mxGeometry y="60" width="160" height="26" as="geometry"/>
                </mxCell>
                <mxCell id="VSiHaWy5NMUxZUaE88dL-7" value="UGameEngine" style="swimlane;fontStyle=1;align=center;verticalAlign=top;childLayout=stackLayout;horizontal=1;startSize=26;horizontalStack=0;resizeParent=1;resizeParentMax=0;resizeLast=0;collapsible=1;marginBottom=0;" vertex="1" parent="VSiHaWy5NMUxZUaE88dL-1">
                    <mxGeometry x="150" y="400" width="160" height="86" as="geometry"/>
                </mxCell>
                <mxCell id="VSiHaWy5NMUxZUaE88dL-8" value="+ field: type" style="text;strokeColor=none;fillColor=none;align=left;verticalAlign=top;spacingLeft=4;spacingRight=4;overflow=hidden;rotatable=0;points=[[0,0.5],[1,0.5]];portConstraint=eastwest;" vertex="1" parent="VSiHaWy5NMUxZUaE88dL-7">
                    <mxGeometry y="26" width="160" height="26" as="geometry"/>
                </mxCell>
                <mxCell id="VSiHaWy5NMUxZUaE88dL-9" value="" style="line;strokeWidth=1;fillColor=none;align=left;verticalAlign=middle;spacingTop=-1;spacingLeft=3;spacingRight=3;rotatable=0;labelPosition=right;points=[];portConstraint=eastwest;" vertex="1" parent="VSiHaWy5NMUxZUaE88dL-7">
                    <mxGeometry y="52" width="160" height="8" as="geometry"/>
                </mxCell>
                <mxCell id="VSiHaWy5NMUxZUaE88dL-10" value="+ method(type): type" style="text;strokeColor=none;fillColor=none;align=left;verticalAlign=top;spacingLeft=4;spacingRight=4;overflow=hidden;rotatable=0;points=[[0,0.5],[1,0.5]];portConstraint=eastwest;" vertex="1" parent="VSiHaWy5NMUxZUaE88dL-7">
                    <mxGeometry y="60" width="160" height="26" as="geometry"/>
                </mxCell>
            </root>
        </mxGraphModel>
    </diagram>
</mxfile>